<svg xmlns="http://www.w3.org/2000/svg" viewBox="0 0 1280 1280" height="1280" width="1280" id="svg3355">

    <defs id="defs3359" />
    <g transform="matrix(1.25,0,0,-1.25,0,1280)" id="g3363">
        <g transform="scale(0.1,0.1)" id="g3365">
            <path id="path3367" style="fill:#1877f2;fill-opacity:1;fill-rule:nonzero;stroke:none" d="m 10240,5120 c 0,2827.7 -2292.3,5120 -5120,5120 C 2292.3,10240 0,7947.7 0,5120 0,2564.46 1872.31,446.301 4320,62.1992 l 0,3577.8008 -1300,0 0,1480 1300,0 0,1128 c 0,1283.2 764.38,1992 1933.9,1992 560.17,0 1146.1,-100 1146.1,-100 l 0,-1260 -645.62,0 C 6118.35,6880 5920,6485.33 5920,6080.43 l 0,-960.43 1420,0 -227,-1480 -1193,0 0,-3577.8008 C 8367.69,446.301 10240,2564.46 10240,5120" />
            <path id="path3369" style="fill:#ffffff;fill-opacity:1;fill-rule:nonzero;stroke:none" d="m 7113,3640 227,1480 -1420,0 0,960.43 c 0,404.9 198.35,799.57 834.38,799.57 l 645.62,0 0,1260 c 0,0 -585.93,100 -1146.1,100 C 5084.38,8240 4320,7531.2 4320,6248 l 0,-1128 -1300,0 0,-1480 1300,0 0,-3577.8008 C 4580.67,21.3008 4847.84,0 5120,0 c 272.16,0 539.33,21.3008 800,62.1992 l 0,3577.8008 1193,0" />
        </g>
    </g>
</svg>
