<svg id="Layer_1" data-name="Layer 1" xmlns="http://www.w3.org/2000/svg" viewBox="0 0 21 21"><defs><style>.cls-1{fill:#fff;}.cls-2{fill:none;}.cls-3{fill:#4175ba;}</style></defs><title>In_21</title><path class="cls-1" d="M8.54,8.83A1.81,1.81,0,1,0,6.72,7,1.79,1.79,0,0,0,8.54,8.83Z" transform="translate(-3.86 -2.36)"/><rect class="cls-1" x="3.1" y="7.86" width="3.16" height="10.03"/><path class="cls-1" d="M15.18,14.82A1.92,1.92,0,0,1,17,12.67c.89,0,1.57.5,1.57,2.11v5.48h3.16v-6.2C21.76,11,19.86,10,18.1,10a3.44,3.44,0,0,0-3,1.67h0V10.23H12v10h3.16Z" transform="translate(-3.86 -2.36)"/><path class="cls-2" d="M15.18,14.82A1.92,1.92,0,0,1,17,12.67c.89,0,1.57.5,1.57,2.11v5.48h3.16v-6.2C21.76,11,19.86,10,18.1,10a3.44,3.44,0,0,0-3,1.67h0V10.23H12v10h3.16Z" transform="translate(-3.86 -2.36)"/><path class="cls-2" d="M8.54,8.83A1.81,1.81,0,1,0,6.72,7,1.79,1.79,0,0,0,8.54,8.83Z" transform="translate(-3.86 -2.36)"/><rect class="cls-2" x="3.1" y="7.86" width="3.16" height="10.03"/><path class="cls-3" d="M23.31,2.36H5.41A1.55,1.55,0,0,0,3.86,3.91v17.9a1.55,1.55,0,0,0,1.55,1.55h17.9a1.55,1.55,0,0,0,1.55-1.55V3.91A1.55,1.55,0,0,0,23.31,2.36ZM8.54,8.83A1.81,1.81,0,1,1,10.36,7,1.79,1.79,0,0,1,8.54,8.83Zm1.58,1.39v10H7v-10Zm11.64,10H18.61V14.78c0-1.62-.69-2.11-1.57-2.11a1.92,1.92,0,0,0-1.86,2.15v5.44H12v-10h3v1.39h0a3.44,3.44,0,0,1,3-1.67c1.76,0,3.67,1,3.67,4.11Z" transform="translate(-3.86 -2.36)"/></svg>