<svg id="Layer_1" data-name="Layer 1" xmlns="http://www.w3.org/2000/svg" viewBox="0 0 21 21"><defs><style>.cls-1{fill:#1976c1;}.cls-2{fill:#fff;}</style></defs><title>mail_21</title><path class="cls-1" d="M-18.63,1.57H-34.38A2.63,2.63,0,0,0-37,4.19h0V20a2.63,2.63,0,0,0,2.63,2.62h15.75A2.63,2.63,0,0,0-16,20V4.21A2.63,2.63,0,0,0-18.63,1.57Z" transform="translate(37.02 -1.57)"/><path class="cls-2" d="M-32.68,18.47a6.47,6.47,0,0,1-1.66-4.72A9.42,9.42,0,0,1-33.06,8.9,9.45,9.45,0,0,1-29.6,5.44a9.16,9.16,0,0,1,4.67-1.26,6.08,6.08,0,0,1,4.58,1.7A6.36,6.36,0,0,1-18.7,10.5a7.15,7.15,0,0,1-.87,3.64,2.89,2.89,0,0,1-2.67,1.51,1.15,1.15,0,0,1-.81-.25,1.44,1.44,0,0,1-.26-1,5.85,5.85,0,0,1,.15-1.29q.15-.66.53-1.94.45-1.45.7-2.63a4.61,4.61,0,0,0-1.31-.95A3.83,3.83,0,0,0-25,7.2a5.27,5.27,0,0,0-3,1,8,8,0,0,0-2.42,2.66,6.56,6.56,0,0,0-.94,3.29,3.51,3.51,0,0,0,.55,2,1.93,1.93,0,0,0,1.73.81,4.75,4.75,0,0,0,2.44-.78,5.79,5.79,0,0,0,2.06-2.12,6.43,6.43,0,0,0-.07.88,2.7,2.7,0,0,0,.35,1.36,1.18,1.18,0,0,0,1.1.61,3.62,3.62,0,0,0,1.46-.4,6.65,6.65,0,0,0,1.51-1l.08.08A9.33,9.33,0,0,1-23.53,19a9.12,9.12,0,0,1-4.61,1.22A6.05,6.05,0,0,1-32.68,18.47Zm3.61-3.59a2.35,2.35,0,0,1-.27-1.21,4.4,4.4,0,0,1,.74-2.44,6,6,0,0,1,1.83-1.82,3.86,3.86,0,0,1,2-.69q.92,0,1.13.55a8.75,8.75,0,0,1-1,2.74,9.93,9.93,0,0,1-1.8,2.39,2.81,2.81,0,0,1-1.8.95A.9.9,0,0,1-29.07,14.89Z" transform="translate(37.02 -1.57)"/></svg>