<svg id="Layer_1" data-name="Layer 1" xmlns="http://www.w3.org/2000/svg" viewBox="0 0 21 21"><defs><style>.cls-1{fill:#1da1f2;}.cls-2{fill:#fff;}</style></defs><title>Twitter_Social_Icon_Rounded_Square_Color21x21</title><g id="Dark_Blue" data-name="Dark Blue"><path class="cls-1" d="M207.88,400H192.13a2.63,2.63,0,0,1-2.62-2.62V381.63a2.63,2.63,0,0,1,2.63-2.62h15.75a2.63,2.63,0,0,1,2.63,2.63v15.75A2.63,2.63,0,0,1,207.88,400Z" transform="translate(-189.5 -379)"/></g><g id="Logo_FIXED" data-name="Logo — FIXED"><path class="cls-2" d="M197.56,394.83a7.61,7.61,0,0,0,7.66-7.66c0-.12,0-.23,0-.35a5.48,5.48,0,0,0,1.34-1.4,5.46,5.46,0,0,1-1.55.43,2.71,2.71,0,0,0,1.19-1.49,5.35,5.35,0,0,1-1.71.65,2.69,2.69,0,0,0-4.66,1.84,3,3,0,0,0,.07.61,7.64,7.64,0,0,1-5.55-2.81,2.7,2.7,0,0,0,.83,3.6,2.72,2.72,0,0,1-1.22-.34v0a2.7,2.7,0,0,0,2.16,2.64,2.71,2.71,0,0,1-1.21,0,2.69,2.69,0,0,0,2.51,1.87,5.4,5.4,0,0,1-3.34,1.16,5.18,5.18,0,0,1-.64,0,7.66,7.66,0,0,0,4.12,1.2" transform="translate(-189.5 -379)"/></g></svg>