<svg xmlns="http://www.w3.org/2000/svg" xmlns:xlink="http://www.w3.org/1999/xlink" width="360.339" height="478.128" viewBox="0 0 360.339 478.128"><defs><style>.a{fill:url(#a);}.ae,.ag,.b,.c,.j,.k,.n,.o,.p,.q,.t,.u{fill:none;stroke-miterlimit:10;}.b,.c{stroke:#b8c2e3;stroke-dasharray:6.41 12.82;}.b{stroke-width:0.53px;}.ah,.b,.c{opacity:0.29;}.c{stroke-width:0.53px;}.d{fill:#fff;}.e{fill:#a4cee1;}.ah,.f{fill:#b8c2e3;}.g{fill:#ccd5ec;}.h,.v,.x{fill:#1b4597;}.i{fill:#153a78;}.ag,.j,.k{stroke:#153a78;}.j{stroke-width:0.337px;}.k{stroke-width:0.337px;}.l{fill:#2b4295;}.m{fill:#c7c9cb;}.n,.o,.p,.q{stroke:#e53375;}.n{stroke-width:0.346px;}.o{stroke-width:0.346px;}.p{stroke-width:0.372px;}.q{stroke-width:0.346px;}.r{fill:#1a3870;}.s{fill:#3a4047;}.t,.u{stroke:#3a4047;}.t{stroke-width:1.498px;}.u{stroke-width:1.418px;}.v{opacity:0.2;}.w,.z{fill:#0d1725;}.aq,.x{opacity:0.14;}.y{fill:#f3af47;}.z{opacity:0.06;}.aa{fill:#40393a;}.ab{fill:#f39d20;}.ac{fill:#f5ae4f;}.ad{fill:#e57c13;}.ae{stroke:#f39d20;stroke-width:1.888px;}.af{fill:#645f61;}.ag{stroke-width:0.337px;}.ai{fill:#e60b1b;opacity:0.75;}.aj{fill:#623f91;}.ak{fill:#2666b0;}.al{fill:#4e9653;}.am{fill:#d2338a;}.an{fill:#002581;}.ao{fill:#e53375;}.ap{fill:#fe9d2b;}.aq{fill:#5a5b5e;}.ar{fill:#f07451;}</style><radialGradient id="a" cx="0.5" cy="0.501" r="0.442" gradientTransform="translate(-0.164 -0.634) scale(1.328 2.27)" gradientUnits="objectBoundingBox"><stop offset="0.04" stop-color="#1b4597"/><stop offset="0.92" stop-color="#153a78"/></radialGradient></defs><g transform="translate(0.241 0)"><g transform="translate(180 239)"><g transform="translate(-180 -239)"><rect class="a" width="360" height="478" transform="translate(0 0)"/><path class="b" d="M.2,393.6c14.7,32.395,36.2,62.09,64.5,84.386" transform="translate(-0.2 -0.066)"/><path class="c" d="M.2,189.888l1.3-1.8c70-97.684,275.5-19,358.3-71.688" transform="translate(-0.2 -0.019)"/><path class="c" d="M71.7,477.958C127.8,351.279,221.1,286.889,313,244.3c15.8-7.3,31.6-14,47.2-20.2" transform="translate(-0.2 -0.037)"/></g></g><g transform="translate(241.329 109.524)"><g transform="translate(-99.132 -83.976)"><path class="d" d="M18.614,43.879c6.56-9.13,28.455-36.433,66.04-42.549s87.138,8.51,105.93,52.3c17.995,41.84,3.014,87.226-31.2,102.473-25.441,11.346-73.93,17.286-105.842,5.141-30.582-11.7-45.741-28.1-51.857-53.187C-5.763,77.3,13.473,50.971,18.614,43.879Z" transform="translate(0.009 -0.003)"/><path class="e" d="M96.8,153.778l1.33,6.294h4.255l-.975-9.4L96.8,149.7Z" transform="translate(-10.984 -17.002)"/><path class="e" d="M121.741,155.934l-1.33,5.762H116.6l.355-8.776,4.787-.62Z" transform="translate(-13.232 -17.297)"/><rect class="f" width="39.979" height="31.362" transform="translate(24.828 22.867)"/><rect class="g" width="37.851" height="29.714" rx="4.521" transform="translate(25.892 23.665)"/><path class="h" d="M125.446,91.358h0a25.087,25.087,0,0,0-.266-3.191,24.378,24.378,0,0,0-1.507-5.5,7.978,7.978,0,0,0-2.127-3.191h0l-.177-.177a29.519,29.519,0,0,0-9.308-2.925h0L108.87,76.2l-4.787.177h0a29.607,29.607,0,0,0-11.524,3.191l-.443.266h0a14.981,14.981,0,0,0-3.1,2.393,10.194,10.194,0,0,0-3.1,7.357c-1.241.8-.443,4.255-.443,4.255A6.568,6.568,0,0,1,86.62,94.9a5.141,5.141,0,0,1,.709,1.152h0a12.323,12.323,0,0,1,.886,3.1h0V99.6h0a3.9,3.9,0,0,1,0,1.241v.266c4.787.089,31.38,3.014,31.38,3.014a11.08,11.08,0,0,0,3.546-3.28h.089a13.651,13.651,0,0,0,2.039-5.23v-.089a20.124,20.124,0,0,0,.177-4.166Zm-37.94,10.017a.443.443,0,0,0,.621-.177C87.506,101.2,87.241,101.2,87.506,101.375Z" transform="translate(-9.669 -8.656)"/><circle class="i" cx="0.532" cy="0.532" r="0.532" transform="translate(95.035 55.577)"/><circle class="i" cx="0.532" cy="0.532" r="0.532" transform="translate(101.417 55.4)"/><path class="j" d="M111.364,63.5a8.332,8.332,0,0,1,.266,3.014,1.064,1.064,0,0,1-1.33.886" transform="translate(-12.517 -7.213)"/><path class="k" d="M108.2,70.3s.177,1.064,2.482,1.152" transform="translate(-12.279 -7.986)"/><g transform="translate(75.622 141.297)"><path class="i" d="M102.966,159.4c-2.571.443-5.053,1.33-7.623,1.33,0,0-3.723,3.1-7.092,3.723s-2.659,2.216-2.659,2.216l18.261-.355v-1.95Z" transform="translate(-85.326 -159.4)"/><path class="l" d="M85.3,167.032l.355,1.33,18.261-.62V166.5Z" transform="translate(-85.3 -160.206)"/></g><path class="m" d="M73.5,144.4" transform="translate(-8.338 -16.4)"/><g transform="translate(90.248 53.45)"><circle class="n" cx="2.659" cy="2.659" r="2.659" transform="translate(2.659)"/><path class="o" d="M118,61.632a1.6,1.6,0,0,1,1.241-.532h.621" transform="translate(-103.64 -60.391)"/><path class="p" d="M101.8,61.677l.886-.177a2.127,2.127,0,0,1,1.773,1.064" transform="translate(-101.8 -60.436)"/><circle class="n" cx="2.659" cy="2.659" r="2.659" transform="translate(9.308)"/><path class="q" d="M110.7,62.9h1.33" transform="translate(-102.811 -60.595)"/></g><path class="r" d="M90.624,80c-4.61,2.748-11.967,10.815-11.967,10.815S67.133,98.7,67.4,98.7c1.862-.355,6.116.532,5.585,1.773s12.853-4.61,13.563-4.344,0,0,0-.443C86.635,91.524,88.763,82.837,90.624,80Z" transform="translate(-7.645 -9.087)"/><path class="r" d="M125.794,79.8a53.541,53.541,0,0,1,11.7,10.549c.886,1.241,3.1,6.028,2.127,8.155s-7.358,3.1-8.067,3.1c-14.715.177-.177-6.382-.355-6.56C129.96,92.919,127.478,82.282,125.794,79.8Z" transform="translate(-14.182 -9.064)"/><g transform="translate(28.729 40.679)"><rect class="s" width="48.4" height="2.668" transform="translate(5.585 56.118) rotate(90)"/><rect class="s" width="48.4" height="2.668" transform="translate(132.612 56.118) rotate(90)"/><rect class="f" width="36.876" height="18.11" rx="1.684" transform="translate(49.818 33.425)"/><path class="t" d="M109.3,144.5s10.815-1.064,9.042,10.637" transform="translate(-41.132 -57.087)"/><path class="u" d="M107.45,144.5s-10.549-.886-8.776,9.308" transform="translate(-39.903 -57.087)"/><rect class="s" width="26.062" height="1.56" transform="translate(68.434 70.656) rotate(90)"/><rect class="s" width="23.579" height="2.686" rx="1.33" transform="translate(55.846 69.149)"/><ellipse class="h" cx="9.308" cy="9.13" rx="9.308" ry="9.13" transform="translate(60.278 0.804)"/><ellipse class="e" cx="4.078" cy="4.078" rx="4.078" ry="4.078" transform="translate(65.508 23.409)"/><path class="e" d="M114.378,77.044l-7.978-.355V72.7h8.067Z" transform="translate(-40.803 -48.937)"/><path class="v" d="M106.4,71.952v1.33l8.067,2.482V70.8Z" transform="translate(-40.803 -48.721)"/><path class="h" d="M109.7,62.5" transform="translate(-41.178 -47.779)"/><rect class="e" width="15.247" height="21.408" rx="7.623" transform="translate(62.14 3.641)"/><path class="h" d="M103.422,59.242s9.042-9.219,9.574-5.053,5.407,3.723,5.407,3.723l-2.216-7.623s-1.6-3.457-5.141-3.191c-14.36.975-8.687,15.867-8.687,15.867Z" transform="translate(-40.218 -46.028)"/><circle class="e" cx="1.773" cy="1.773" r="1.773" transform="translate(74.816 13.037)"/><path class="h" d="M103.677,60.485s6.56-.443,9.84-4.964S111.478,51,111.478,51l-3.9,1.418L104.3,55.7l-.8,4.7Z" transform="translate(-40.474 -46.473)"/><circle class="e" cx="1.773" cy="1.773" r="1.773" transform="translate(60.81 13.835)"/><g transform="translate(64.809 0)"><rect class="h" width="0.798" height="4.29" rx="0.089" transform="translate(1.814 4.526) rotate(-170.7)"/><rect class="h" width="0.709" height="4.29" rx="0.089" transform="matrix(-0.427, 0.904, -0.904, -0.427, 4.182, 2.772)"/><rect class="h" width="0.886" height="4.308" rx="0.089" transform="matrix(-0.849, 0.528, -0.528, -0.849, 3.539, 3.657)"/></g><rect class="w" width="40.599" height="10.371" rx="0.532" transform="translate(50.084 58.778)"/><path class="w" d="M125.715,112.752s11.258,2.3,10.549,8.333-14.981,31.735-14.981,31.735h-7.269l7.889-28.544L111,119.223V111.6Z" transform="translate(-41.325 -53.354)"/><path class="w" d="M89.445,113.175S78.187,115.3,78.9,121.064s14.981,29.962,14.981,29.962h7.269l-7.889-26.948,10.9-4.7V112.2Z" transform="translate(-37.676 -53.422)"/><path class="x" d="M90.284,101.684h33.508A1.684,1.684,0,0,0,125.476,100V85.284a1.684,1.684,0,0,0-1.684-1.684L88.6,100A1.684,1.684,0,0,0,90.284,101.684Z" transform="translate(-38.782 -50.175)"/><rect class="s" width="129.687" height="2.845" transform="translate(2.925 56.118)"/><rect class="h" width="136.424" height="5.354" transform="translate(0 51.775)"/></g><path class="e" d="M67.852,101.489h3.1c.355.089,1.507.709,1.418,1.064a.8.8,0,0,1-.355.62l-.886.355h-.355l-3.28.177c-.443,0-.532-.266-.709-.8s-.177-1.507.709-1.507Z" transform="translate(-7.566 -11.517)"/><path class="y" d="M72.462,104H66.7c0-.886,1.33-1.6,2.837-1.6S72.462,103.109,72.462,104Z" transform="translate(-7.566 -11.631)"/><path class="z" d="M72.756,104H70.274c0-.886-1.95-1.6-.355-1.6S72.756,103.109,72.756,104Z" transform="translate(-7.86 -11.631)"/><rect class="aa" width="14.715" height="3.404" transform="translate(143.258 88.908)"/><g transform="translate(135.546 59.832)"><path class="ab" d="M168.957,85.9c.177,5.407-2.216,9.751-7.357,12.765h14.715C171.44,96.094,169.135,91.751,168.957,85.9Z" transform="translate(-153.888 -69.589)"/><path class="ac" d="M169.2,85.9c.177,5.407-.355,9.751-5.5,12.765h12.853C171.678,96.094,169.373,91.751,169.2,85.9Z" transform="translate(-154.126 -69.589)"/><path class="ab" d="M169.446,85.9c.177,5.407.177,8.776-3.546,12.765h10.9C171.928,96.094,169.623,91.751,169.446,85.9Z" transform="translate(-154.376 -69.589)"/><path class="ad" d="M169.9,85.9c.177,5.407,0,6.826,3.9,12.765h3.457C172.382,96.094,170.077,91.751,169.9,85.9Z" transform="translate(-154.83 -69.589)"/><path class="ae" d="M152.9,72.2c0,6.914,6.737,12.588,15.07,12.588s15.07-5.673,15.07-12.588Z" transform="translate(-152.9 -68.034)"/><path class="ad" d="M181.335,67.5c-1.152,9.662-5.851,19.325-11.435,19.325,3.191,0,5.939-9.662,6.56-19.325Z" transform="translate(-154.83 -67.5)"/><path class="ab" d="M174.995,67.5c-.62,9.662-3.368,19.325-6.56,19.325-5.5,0-10.194-9.4-11.435-18.881V67.5Z" transform="translate(-153.366 -67.5)"/><path class="ac" d="M175.347,67.5c-.62,9.662-3.368,19.325-6.56,19.325s-7.712-9.4-8.687-18.881V67.5Z" transform="translate(-153.718 -67.5)"/><path class="ab" d="M175.619,67.5c-.62,9.662-3.368,19.325-6.56,19.325s-5.762-9.4-6.56-18.881V67.5Z" transform="translate(-153.99 -67.5)"/><rect class="af" width="1.862" height="3.404" transform="translate(9.574 29.075)"/></g><path class="ag" d="M108.3,70.1s.177,1.064,2.482,1.152" transform="translate(-12.29 -7.963)"/><path class="ah" d="M67.979,57.18,28,25.8H67.979Z" transform="translate(-3.172 -2.933)"/><path class="ai" d="M62.439,64.364l-.975-1.418L60.4,64.364V55.5h2.039Z" transform="translate(-6.851 -6.305)"/><path class="h" d="M64.827,64.364l-1.064-1.418L62.7,64.364V55.5h2.127Z" transform="translate(-7.112 -6.305)"/><circle class="ab" cx="4.166" cy="4.166" r="4.166" transform="translate(51.422 44.851)"/><path class="ac" d="M62.166,58.933a4.166,4.166,0,1,1,0-8.333Z" transform="translate(-6.578 -5.749)"/><path class="h" d="M125.9,79.8" transform="translate(-14.289 -9.064)"/><rect class="aj" width="6.623" height="2.711" transform="translate(139.551 45.03) rotate(-144.395)"/><rect class="ak" width="7.269" height="3.333" transform="matrix(-0.524, 0.852, -0.852, -0.524, 162.785, 38.29)"/><rect class="y" width="8.421" height="3.448" transform="matrix(0.748, -0.664, 0.664, 0.748, 171.405, 18.45)"/><rect class="y" width="8.421" height="3.448" transform="translate(164.789 30.957) rotate(-111.1)"/><path class="aj" d="M147,31.833h-.089c-.177-1.95-1.418-2.837-3.457-3.191s-3.1-1.152-3.457-3.28l1.684-1.862a3.367,3.367,0,0,0,3.457,3.28,3.37,3.37,0,0,1,3.457,3.28Z" transform="translate(-15.89 -2.671)"/><path class="al" d="M190.4,51.314h0c1.95-.177,2.837-1.418,3.191-3.457s1.152-3.1,3.28-3.457l1.862,1.684a3.367,3.367,0,0,0-3.28,3.457A3.37,3.37,0,0,1,192.173,53Z" transform="translate(-21.613 -5.045)"/><path class="aj" d="M168.253,9.6h0c1.33-1.33,1.33-2.925.355-4.7s-1.064-3.191.355-4.7l2.482.177c-1.418,1.507-1.684,3.1-.355,4.7a3.2,3.2,0,0,1-.355,4.7Z" transform="translate(-19.056 -0.026)"/><path class="am" d="M165.6,24.46h0c1.95-1.064,2.3-3.014,2.571-5.23A6.826,6.826,0,0,1,170.741,14l2.748,1.33h0a7.446,7.446,0,0,0-2.571,5.23,6.819,6.819,0,0,1-2.571,5.23Z" transform="translate(-18.797 -1.593)"/><rect class="an" width="6.648" height="2.721" transform="translate(142.181 27.242) rotate(101.1)"/><rect class="y" width="8.421" height="3.448" transform="matrix(0.849, -0.528, 0.528, 0.849, 154.738, 52.409)"/><rect class="al" width="7.535" height="3.094" transform="translate(148.135 56.875) rotate(-159.6)"/><rect class="ao" width="7.535" height="3.103" transform="matrix(0.245, -0.969, 0.969, 0.245, 153.729, 31.848)"/><path class="aj" d="M203.6,34.694h-.089c-.8-1.773-2.3-2.3-4.255-1.95A3.48,3.48,0,0,1,195,30.7l1.064-2.3c.975,1.862,2.3,2.659,4.255,2.039a3.2,3.2,0,0,1,4.255,2.039Z" transform="translate(-22.135 -3.228)"/><g transform="translate(172.156 2.568)"><path class="ap" d="M198.248,10.169,198.78,6l-2.748-3.1L195.5,6.978l2.748,3.191Z" transform="translate(-194.348 -2.9)"/><path class="aq" d="M198.316,10.169,198.848,6,196.1,2.9l2.216,7.269Z" transform="translate(-194.416 -2.9)"/><path class="ap" d="M197.3,7.85l2.482-1.862-3.1-.089L194.2,7.673Z" transform="translate(-194.2 -3.241)"/><path class="aq" d="M197.314,7.862,199.8,6l-5.5,1.684Z" transform="translate(-194.211 -3.252)"/></g><g transform="translate(165.419 33.505)"><path class="ap" d="M187.5,44.448l3.28-2.482.355-4.166-3.28,2.571-.355,4.078Z" transform="translate(-186.702 -37.8)"/><path class="aq" d="M187.5,44.448l3.28-2.482.355-4.166L187.5,44.448Z" transform="translate(-186.702 -37.8)"/><path class="ap" d="M188.727,42.3l3.1.443-2.127-2.3L186.6,40Z" transform="translate(-186.6 -38.05)"/><path class="aq" d="M188.75,42.316l3.1.443L186.8,40.1Z" transform="translate(-186.623 -38.061)"/></g><g transform="translate(140.598 7.443)"><path class="ap" d="M162.571,15.758l.621-4.078L160.62,8.4,160,12.478l2.571,3.28Z" transform="translate(-158.759 -8.4)"/><path class="aq" d="M162.65,15.758l.621-4.078L160.7,8.4l1.95,7.358Z" transform="translate(-158.838 -8.4)"/><path class="ap" d="M161.7,13.45l2.571-1.684-3.1-.266L158.6,13.184Z" transform="translate(-158.6 -8.752)"/><path class="aq" d="M161.714,13.484l2.571-1.684L158.7,13.218Z" transform="translate(-158.611 -8.786)"/></g><g transform="translate(127.479 40.862)"><path class="ap" d="M143.8,46.7l2.3,3.369,4.166.621-2.3-3.457L143.8,46.7Z" transform="translate(-143.8 -46.168)"/><path class="aq" d="M143.8,46.7l2.3,3.369,4.166.621L143.8,46.7Z" transform="translate(-143.8 -46.168)"/><path class="ap" d="M146.409,48.05l-.709,3.014,2.393-1.95L148.8,46.1Z" transform="translate(-144.016 -46.1)"/><path class="aq" d="M146.409,48.073l-.709,3.014,3.014-4.787Z" transform="translate(-144.016 -46.123)"/></g><path class="ar" d="M144.971,6.3c-.089,2.216,1.418,3.546,3.191,4.875a6.826,6.826,0,0,1,3.191,4.875l-2.571,1.684a7.446,7.446,0,0,0-3.191-4.875c-1.684-1.241-3.014-2.748-3.191-4.875Z" transform="translate(-16.162 -0.718)"/><path class="al" d="M180.259,6.1c-.177,2.216,1.241,3.634,2.925,4.964a6.826,6.826,0,0,1,2.925,4.964l-2.659,1.6a7.446,7.446,0,0,0-2.925-4.964c-1.6-1.33-2.925-2.925-2.925-4.964Z" transform="translate(-20.159 -0.696)"/><path class="ar" d="M166.159,54.456c.709-2.039-.355-3.812-1.684-5.585a6.826,6.826,0,0,1-1.684-5.585l2.925-.886a7.446,7.446,0,0,0,1.684,5.585c1.241,1.684,2.127,3.546,1.684,5.585Z" transform="translate(-18.469 -4.817)"/><rect class="al" width="7.801" height="3.227" transform="translate(141.839 18.479) rotate(143.1)"/><g transform="translate(100.885 142.183)"><path class="i" d="M115.407,160.4a4.831,4.831,0,0,0,5.762.355s1.241,4.344.266,6.56-7.535-.443-7.535-.443A15.158,15.158,0,0,1,115.407,160.4Z" transform="translate(-113.811 -160.4)"/><path class="l" d="M121.689,167.677v1.6l-7.8-.355L113.8,167.5Z" transform="translate(-113.8 -161.206)"/></g><ellipse class="x" cx="50.084" cy="8.687" rx="50.084" ry="8.687" transform="translate(47.344 139.79)"/></g></g></g></svg>