<svg xmlns="http://www.w3.org/2000/svg" xmlns:xlink="http://www.w3.org/1999/xlink" width="1920" height="418" viewBox="0 0 1920 418"><defs><style>.a,.h{fill:none;}.b{clip-path:url(#a);}.c{fill:url(#b);}.d{fill:url(#c);}.e{fill:url(#d);}.f{fill:url(#e);}.g{fill:url(#f);}.h{stroke:#c8cde8;stroke-miterlimit:10;stroke-width:1.114px;stroke-dasharray:13.317 26.646;}.h,.i{opacity:0.29;}.h,.j{isolation:isolate;}.j,.k{fill:#c8cde8;}.j{opacity:0.18;}.l{fill:url(#h);}</style><clipPath id="a"><rect class="a" width="1920" height="418" transform="translate(0)"/></clipPath><radialGradient id="b" cx="0.496" cy="0.451" r="7.21" gradientTransform="translate(0.476) scale(0.049 1)" gradientUnits="objectBoundingBox"><stop offset="0.04" stop-color="#3e56a6"/><stop offset="0.92" stop-color="#31498a"/></radialGradient><radialGradient id="c" cx="0.5" cy="0.5" r="1.402" gradientTransform="translate(0.369 -0.002) scale(0.261 1.003)" xlink:href="#b"/><linearGradient id="d" x1="0.5" x2="0.5" y2="1" gradientUnits="objectBoundingBox"><stop offset="0" stop-color="#3e56a6"/><stop offset="0.93" stop-color="#31498a"/></linearGradient><linearGradient id="e" x1="0.751" y1="2.014" x2="0.243" y2="-0.061" xlink:href="#d"/><linearGradient id="f" x1="0.758" y1="5.81" x2="0.234" y2="-4.909" xlink:href="#d"/><linearGradient id="h" x1="0.5" x2="0.5" y2="1" gradientUnits="objectBoundingBox"><stop offset="0" stop-color="#3e56a6"/><stop offset="0.671" stop-color="#31498a"/></linearGradient></defs><g transform="translate(0)"><g class="b"><path class="c" d="M420.7,470.989h0Z"/><line class="a" x1="0.01" transform="translate(425.23 469.959)"/><rect class="d" width="1920" height="501.662" transform="translate(0 -38.121)"/><path class="a" d="M425.23,469.959h.01l.01-.01h.01"/><path class="a" d="M425.28,469.929l-.01.01-.01.01h-.01l-.01.01h-.02"/><path class="a" d="M426.86,469.209c-.19.1-.38.19-.57.28s-.37.17-.54.25c-.15.07-.29.12-.44.18-.01,0-.02.01-.03.01l-.01.01-.01.01h-.01l-.01.01h-.01"/><path class="e" d="M389.41,347.619c-9.44,11.81-49.6,62.06-110.86,104.72q-6.945,4.845-14.26,9.54H72.72a4.738,4.738,0,0,1-3.37,1.3l-24.11-1.3H0v-500H469.95q3.345,1.635,6.71,3.32C544.48,146.879,411.42,320.059,389.41,347.619Z"/><line class="a" x1="0.01" transform="translate(425.23 469.959)"/><path class="f" d="M956.46,462.879H533.33a2.577,2.577,0,0,1-1.04.57,2.609,2.609,0,0,1-1.76-.14l-.86-.43H356.98a343.7,343.7,0,0,1,55.99-64.22c.21-.19.41-.38.62-.56q11.22-9.915,23.77-19.04a310.323,310.323,0,0,1,43.27-26.33c60.77-30.54,129.66-40.62,197.61-33.77C784.95,329.719,889.36,382.229,956.46,462.879Z"/><path class="a" d="M425.23,469.959h.01l.01-.01h.01"/><path class="a" d="M425.28,469.929l-.01.01-.01.01h-.01l-.01.01h-.02"/><path class="a" d="M426.86,469.209c-.19.1-.38.19-.57.28s-.37.17-.54.25c-.15.07-.29.12-.44.18-.01,0-.02.01-.03.01l-.01.01-.01.01h-.01l-.01.01h-.01"/><path class="g" d="M420.7,470.989h0Z"/><path class="e" d="M1385.65-38.121a90.271,90.271,0,0,1-2.56,9.9,298.862,298.862,0,0,1-14.75,37.39A300.9,300.9,0,0,1,1348.26,45q-.555.87-1.14,1.74-3.96,5.985-8.15,11.7c-5.31,7.29-10.89,14.28-16.67,20.96-.17.2-.35.4-.53.6-.5.59-1,1.16-1.52,1.74-5.3,6.03-10.79,11.82-16.4,17.36q-5.31,5.265-10.78,10.23c-.65.59-1.29,1.17-1.94,1.75q-4.65,4.17-9.38,8.14c-.74.62-1.48,1.25-2.23,1.86q-11.37,9.42-23.07,17.72c-8.18,5.84-16.43,11.3-24.67,16.38-68.24,42.12-135.51,59.08-153.59,63.32-27.17,6.36-216.72,50.83-343.9-55.54q-7.155-5.985-14.04-12.61-1.83-1.74-3.63-3.56C642.29,72.249,607.4,18.269,613.61-38.121Z"/><path class="h" d="M686.7,461.879a489.617,489.617,0,0,1-10.59-77.39,361.709,361.709,0,0,1,2.13-66.53c4.37-34.16,13.76-65.06,26.75-97.16q7.86-19.44,16.3-35.45c115.39-219.89,306.89,16.37,419.34-101.4,20.8-21.79.25-73.98-18.31-122.07"/><rect class="a" width="1485.15" height="500" transform="translate(219.08 -38.121)"/><g class="i"><path class="j" d="M1087.2,420.3l15.705,2.091a2.016,2.016,0,0,1,1.163,3.292l-14.678,17.327a1.745,1.745,0,0,1-1.547.619l-13.836-1.795a1.968,1.968,0,0,1-1.634-2.2l.792-7.426C1073.944,424.688,1080.218,419.366,1087.2,420.3Z"/><path class="k" d="M1065.652,458.822l-10.025-18.985a1.621,1.621,0,0,1,.445-2.067l21.523-15.3s-5.57,3.812-5.656,18.935a.725.725,0,0,0,0,.161l-1.721,16.3a1.507,1.507,0,0,1-1.138,1.336l-1.807.4A1.435,1.435,0,0,1,1065.652,458.822Z"/><path class="j" d="M1034.241,433.042l6.46-15.408a1.77,1.77,0,0,1,3.255-.124l10.965,20.656a2.089,2.089,0,0,1,.087,1.782l-5.644,13.614a1.745,1.745,0,0,1-2.244,1.026,1.8,1.8,0,0,1-.169-.073l-6.324-3.218A14.381,14.381,0,0,1,1034.241,433.042Z"/><path class="k" d="M1062.22,462.879h-23.63l-4.94-18.58c.38,1.1,2.93,7.23,15.01,11.76h.14Z"/><path class="j" d="M1111.19,462.879h-18.8a1.9,1.9,0,0,1,1.44-1.59l6.81-1.38A12.11,12.11,0,0,1,1111.19,462.879Z"/><path class="k" d="M1084.15,462.879l7.73-1.56h.15c12.25-3.97,17.62-.47,18.45.15l-20.39-17.46c-.01-.02-.03-.03-.05-.05a1.353,1.353,0,0,0-1.91.2l-13.51,15.89a1.646,1.646,0,0,0-.18,1.79l.56,1.04Z"/><path class="j" d="M1087.2,420.3l15.705,2.091a2.016,2.016,0,0,1,1.163,3.292l-14.678,17.327a1.745,1.745,0,0,1-1.547.619l-13.836-1.795a1.968,1.968,0,0,1-1.634-2.2l.792-7.426C1073.944,424.688,1080.218,419.366,1087.2,420.3Z"/><path class="k" d="M1065.652,458.822l-10.025-18.985a1.621,1.621,0,0,1,.445-2.067l21.523-15.3s-5.57,3.812-5.656,18.935a.725.725,0,0,0,0,.161l-1.721,16.3a1.507,1.507,0,0,1-1.138,1.336l-1.807.4A1.435,1.435,0,0,1,1065.652,458.822Z"/><path class="j" d="M1034.241,433.042l6.46-15.408a1.77,1.77,0,0,1,3.255-.124l10.965,20.656a2.089,2.089,0,0,1,.087,1.782l-5.644,13.614a1.745,1.745,0,0,1-2.244,1.026,1.8,1.8,0,0,1-.169-.073l-6.324-3.218A14.381,14.381,0,0,1,1034.241,433.042Z"/><path class="k" d="M1062.22,462.879h-23.63l-4.94-18.58c.38,1.1,2.93,7.23,15.01,11.76h.14Z"/><path class="j" d="M1111.19,462.879h-18.8a1.9,1.9,0,0,1,1.44-1.59l6.81-1.38A12.11,12.11,0,0,1,1111.19,462.879Z"/><path class="k" d="M1084.15,462.879l7.73-1.56h.15c12.25-3.97,17.62-.47,18.45.15l-20.39-17.46c-.01-.02-.03-.03-.05-.05a1.353,1.353,0,0,0-1.91.2l-13.51,15.89a1.646,1.646,0,0,0-.18,1.79l.56,1.04Z"/></g><g class="i"><path class="j" d="M489.112,364.711l22.277,2.983a2.883,2.883,0,0,1,1.658,4.678l-20.866,24.579a2.477,2.477,0,0,1-2.191.867l-19.665-2.537a2.811,2.811,0,0,1-2.315-3.132l1.126-10.532C470.263,370.949,479.186,363.4,489.112,364.711Z"/><path class="k" d="M458.493,419.464l-14.3-26.98a2.292,2.292,0,0,1,.632-2.934L475.4,367.818s-7.909,5.408-8.045,26.893a1.541,1.541,0,0,1,0,.235L464.879,418.1A2.128,2.128,0,0,1,463.27,420l-2.562.569A2.079,2.079,0,0,1,458.493,419.464Z"/><path class="j" d="M413.864,382.83l9.183-21.893a2.476,2.476,0,0,1,4.617-.174l15.557,29.357a2.919,2.919,0,0,1,.123,2.475l-7.982,19.381a2.476,2.476,0,0,1-3.177,1.47,2.429,2.429,0,0,1-.276-.121l-8.973-4.554C413.839,404.154,409.8,392.57,413.864,382.83Z"/><path class="k" d="M453.6,432.644l-28.02,5.9a2.091,2.091,0,0,1-2.413-1.6l-10.223-38.366s2.476,9.9,21.4,16.968l.2.087,19.74,10.024a2.316,2.316,0,0,1,1.238,2.253l-.26,2.822A2.117,2.117,0,0,1,453.6,432.644Z"/><path class="j" d="M440.04,457.2l-4.94,5.68H404.86l-13.71-13.6a2.835,2.835,0,0,1,1.24-4.78l30.48-6.45a2.341,2.341,0,0,1,.95-.01,2.4,2.4,0,0,1,1.12.52,1.8,1.8,0,0,1,.21.19l14.72,14.48A2.96,2.96,0,0,1,440.04,457.2Z"/><path class="k" d="M420.7,471.989h0Z"/><path class="k" d="M462.73,441.409l-2.12,21.47H436.13a63.038,63.038,0,0,0,5.83-7.3c.04-.06.09-.12.13-.17l14.65-16.97a1.947,1.947,0,0,1,2.35-.5l2.47,1.18A2.311,2.311,0,0,1,462.73,441.409Z"/><path class="a" d="M425.26,470.949h-.01l-.01.01"/><path class="a" d="M425.17,470.979a.06.06,0,0,0,.04-.01l.01-.01"/><path class="j" d="M480.95,462.879h-4.78l1.37-.83a2.47,2.47,0,0,1,3.4.82A.01.01,0,0,0,480.95,462.879Z"/><path class="k" d="M496.94,462.879l4.16-12.3a2.308,2.308,0,0,0-1.08-2.8l-26.17-13.03a1.919,1.919,0,0,0-2.37.49l-1.75,2.08a2.343,2.343,0,0,0-.26,2.57l10.69,20.52.12.19q.765,1.17,1.44,2.28Z"/><path class="j" d="M533.33,462.879a2.577,2.577,0,0,1-1.04.57,2.609,2.609,0,0,1-1.76-.14l-.86-.43-27.6-13.72a2.83,2.83,0,0,1-1.49-2l-4.14-20.93a2.73,2.73,0,0,1,2.02-3.27l9.66-1.96c9.78-1.99,19.35,4.93,21.4,15.48l4.6,23.76A2.6,2.6,0,0,1,533.33,462.879Z"/><path class="k" d="M471.24,421.184l19.184-22.574a1.954,1.954,0,0,1,2.754-.247l.043.036L522.33,423.35s-7.34-6.51-26.362-.347h-.2l-21.25,4.3a2.041,2.041,0,0,1-2.19-1.089l-1.337-2.475A2.366,2.366,0,0,1,471.24,421.184Z"/><path class="j" d="M489.112,364.711l22.277,2.983a2.883,2.883,0,0,1,1.658,4.678l-20.866,24.579a2.477,2.477,0,0,1-2.191.867l-19.665-2.537a2.811,2.811,0,0,1-2.315-3.132l1.126-10.532C470.263,370.949,479.186,363.4,489.112,364.711Z"/><path class="k" d="M458.493,419.464l-14.3-26.98a2.292,2.292,0,0,1,.632-2.934L475.4,367.818s-7.909,5.408-8.045,26.893a1.541,1.541,0,0,1,0,.235L464.879,418.1A2.128,2.128,0,0,1,463.27,420l-2.562.569A2.079,2.079,0,0,1,458.493,419.464Z"/><path class="j" d="M413.864,382.83l9.183-21.893a2.476,2.476,0,0,1,4.617-.174l15.557,29.357a2.919,2.919,0,0,1,.123,2.475l-7.982,19.381a2.476,2.476,0,0,1-3.177,1.47,2.429,2.429,0,0,1-.276-.121l-8.973-4.554C413.839,404.154,409.8,392.57,413.864,382.83Z"/><path class="k" d="M453.6,432.644l-28.02,5.9a2.091,2.091,0,0,1-2.413-1.6l-10.223-38.366s2.476,9.9,21.4,16.968l.2.087,19.74,10.024a2.316,2.316,0,0,1,1.238,2.253l-.26,2.822A2.117,2.117,0,0,1,453.6,432.644Z"/><path class="j" d="M440.04,457.2l-4.94,5.68H404.86l-13.71-13.6a2.835,2.835,0,0,1,1.24-4.78l30.48-6.45a2.341,2.341,0,0,1,.95-.01,2.4,2.4,0,0,1,1.12.52,1.8,1.8,0,0,1,.21.19l14.72,14.48A2.96,2.96,0,0,1,440.04,457.2Z"/><path class="k" d="M420.7,471.989h0Z"/><path class="k" d="M462.73,441.409l-2.12,21.47H436.13a63.038,63.038,0,0,0,5.83-7.3c.04-.06.09-.12.13-.17l14.65-16.97a1.947,1.947,0,0,1,2.35-.5l2.47,1.18A2.311,2.311,0,0,1,462.73,441.409Z"/><path class="a" d="M425.26,470.949h-.01l-.01.01"/><path class="a" d="M425.17,470.979a.06.06,0,0,0,.04-.01l.01-.01"/><path class="j" d="M480.95,462.879h-4.78l1.37-.83a2.47,2.47,0,0,1,3.4.82A.01.01,0,0,0,480.95,462.879Z"/><path class="k" d="M496.94,462.879l4.16-12.3a2.308,2.308,0,0,0-1.08-2.8l-26.17-13.03a1.919,1.919,0,0,0-2.37.49l-1.75,2.08a2.343,2.343,0,0,0-.26,2.57l10.69,20.52.12.19q.765,1.17,1.44,2.28Z"/><path class="j" d="M533.33,462.879a2.577,2.577,0,0,1-1.04.57,2.609,2.609,0,0,1-1.76-.14l-.86-.43-27.6-13.72a2.83,2.83,0,0,1-1.49-2l-4.14-20.93a2.73,2.73,0,0,1,2.02-3.27l9.66-1.96c9.78-1.99,19.35,4.93,21.4,15.48l4.6,23.76A2.6,2.6,0,0,1,533.33,462.879Z"/><path class="k" d="M471.24,421.184l19.184-22.574a1.954,1.954,0,0,1,2.754-.247l.043.036L522.33,423.35s-7.34-6.51-26.362-.347h-.2l-21.25,4.3a2.041,2.041,0,0,1-2.19-1.089l-1.337-2.475A2.366,2.366,0,0,1,471.24,421.184Z"/></g><g class="i"><path class="j" d="M141.925,211.608l51.289,6.867a6.64,6.64,0,0,1,3.818,10.771l-48.041,56.589a5.7,5.7,0,0,1-5.043,1.995l-45.277-5.842a6.469,6.469,0,0,1-5.329-7.209l2.593-24.248C98.528,225.969,119.073,208.588,141.925,211.608Z"/><path class="k" d="M71.431,337.665,38.52,275.549a5.272,5.272,0,0,1,1.453-6.753l70.38-50.036s-18.207,12.452-18.521,61.918a3.489,3.489,0,0,1,0,.541l-5.7,53.312a4.9,4.9,0,0,1-3.7,4.36l-5.9,1.311A4.787,4.787,0,0,1,71.431,337.665Z"/><path class="j" d="M36.55,275.809l-18.37,44.62a5.7,5.7,0,0,1-7.32,3.38,4.461,4.461,0,0,1-.63-.28L0,318.339V201.679a5.6,5.6,0,0,1,.45.84l35.82,67.59A6.7,6.7,0,0,1,36.55,275.809Z"/><path class="k" d="M64.59,357.129l-.6,6.49a4.86,4.86,0,0,1-3.81,4.39L0,380.689v-59.01a144.124,144.124,0,0,0,15.84,6.98l.45.2,45.45,23.08A5.33,5.33,0,0,1,64.59,357.129Z"/><path class="j" d="M28.95,424.539l-15.48,17.79A39.335,39.335,0,0,1,0,452.669v-65.36L28.55,415.4A6.8,6.8,0,0,1,28.95,424.539Z"/><path class="k" d="M81.18,388.189l-6.96,70.49a4.791,4.791,0,0,1-4.87,4.5l-24.11-1.3L0,459.439v-5.68c8.71-4.78,20.41-14.24,33.36-32.95a4.007,4.007,0,0,1,.32-.4l33.7-39.06a4.47,4.47,0,0,1,5.42-1.14l5.7,2.71A5.335,5.335,0,0,1,81.18,388.189Z"/><path class="j" d="M135.72,461.879H73.77a6.26,6.26,0,0,1,2.11-2.29l39.4-23.88a5.689,5.689,0,0,1,8.18,2.54l11.2,21.48C135.03,460.439,135.39,461.159,135.72,461.879Z"/><path class="k" d="M169.54,409.3l-17.81,52.58H136.81a141.159,141.159,0,0,0-15.23-29.5l-.26-.46L96.7,384.679a5.368,5.368,0,0,1,.6-5.9l4.02-4.78a4.432,4.432,0,0,1,5.47-1.14l60.24,30A5.343,5.343,0,0,1,169.54,409.3Z"/><path class="j" d="M234.958,376.845l10.6,54.708a6.012,6.012,0,0,1-8.263,7.067l-65.536-32.6a6.5,6.5,0,0,1-3.419-4.588l-9.546-48.183a6.326,6.326,0,0,1,4.645-7.551l22.254-4.5C208.2,336.611,230.228,352.539,234.958,376.845Z"/><path class="k" d="M100.779,341.626l44.166-51.973a4.5,4.5,0,0,1,6.341-.569c.034.028.066.056.1.085L218.4,346.613s-16.9-14.988-60.693-.8h-.456L108.33,355.7a4.7,4.7,0,0,1-5.043-2.507l-3.078-5.7A5.444,5.444,0,0,1,100.779,341.626Z"/><path class="j" d="M141.925,211.608l51.289,6.867a6.64,6.64,0,0,1,3.818,10.771l-48.041,56.589a5.7,5.7,0,0,1-5.043,1.995l-45.277-5.842a6.469,6.469,0,0,1-5.329-7.209l2.593-24.248C98.528,225.969,119.073,208.588,141.925,211.608Z"/><path class="k" d="M71.431,337.665,38.52,275.549a5.272,5.272,0,0,1,1.453-6.753l70.38-50.036s-18.207,12.452-18.521,61.918a3.489,3.489,0,0,1,0,.541l-5.7,53.312a4.9,4.9,0,0,1-3.7,4.36l-5.9,1.311A4.787,4.787,0,0,1,71.431,337.665Z"/><path class="j" d="M36.55,275.809l-18.37,44.62a5.7,5.7,0,0,1-7.32,3.38,4.461,4.461,0,0,1-.63-.28L0,318.339V201.679a5.6,5.6,0,0,1,.45.84l35.82,67.59A6.7,6.7,0,0,1,36.55,275.809Z"/><path class="k" d="M64.59,357.129l-.6,6.49a4.86,4.86,0,0,1-3.81,4.39L0,380.689v-59.01a144.124,144.124,0,0,0,15.84,6.98l.45.2,45.45,23.08A5.33,5.33,0,0,1,64.59,357.129Z"/><path class="j" d="M28.95,424.539l-15.48,17.79A39.335,39.335,0,0,1,0,452.669v-65.36L28.55,415.4A6.8,6.8,0,0,1,28.95,424.539Z"/><path class="k" d="M81.18,388.189l-6.96,70.49a4.791,4.791,0,0,1-4.87,4.5l-24.11-1.3L0,459.439v-5.68c8.71-4.78,20.41-14.24,33.36-32.95a4.007,4.007,0,0,1,.32-.4l33.7-39.06a4.47,4.47,0,0,1,5.42-1.14l5.7,2.71A5.335,5.335,0,0,1,81.18,388.189Z"/><path class="j" d="M135.72,461.879H73.77a6.26,6.26,0,0,1,2.11-2.29l39.4-23.88a5.689,5.689,0,0,1,8.18,2.54l11.2,21.48C135.03,460.439,135.39,461.159,135.72,461.879Z"/><path class="k" d="M169.54,409.3l-17.81,52.58H136.81a141.159,141.159,0,0,0-15.23-29.5l-.26-.46L96.7,384.679a5.368,5.368,0,0,1,.6-5.9l4.02-4.78a4.432,4.432,0,0,1,5.47-1.14l60.24,30A5.343,5.343,0,0,1,169.54,409.3Z"/><path class="j" d="M234.958,376.845l10.6,54.708a6.012,6.012,0,0,1-8.263,7.067l-65.536-32.6a6.5,6.5,0,0,1-3.419-4.588l-9.546-48.183a6.326,6.326,0,0,1,4.645-7.551l22.254-4.5C208.2,336.611,230.228,352.539,234.958,376.845Z"/><path class="k" d="M100.779,341.626l44.166-51.973a4.5,4.5,0,0,1,6.341-.569c.034.028.066.056.1.085L218.4,346.613s-16.9-14.988-60.693-.8h-.456L108.33,355.7a4.7,4.7,0,0,1-5.043-2.507l-3.078-5.7A5.444,5.444,0,0,1,100.779,341.626Z"/></g><g class="i"><path class="j" d="M1069.01-38.121l-4.84,5.71a2.468,2.468,0,0,1-2.19.87l-19.64-2.53a2.806,2.806,0,0,1-2.3-3.13l.1-.92Z"/><path class="k" d="M1039.45-38.121c-.05,1.11-.08,2.26-.09,3.47v.22l-2.48,23.13a2.1,2.1,0,0,1-1.61,1.88l-2.56.57a2.06,2.06,0,0,1-2.2-1.09l-14.28-26.94a2.273,2.273,0,0,1-.27-1.24Z"/><path class="j" d="M1015.61-38.121a3.048,3.048,0,0,1-.2,1.36l-7.96,19.35a2.483,2.483,0,0,1-3.19,1.44,2.55,2.55,0,0,1-.24-.11l-8.97-4.55a19.963,19.963,0,0,1-10.67-17.49Z"/><path class="k" d="M1025.619,3.228l-27.97,5.891a2.092,2.092,0,0,1-2.476-1.6l-10.2-38.366s2.476,9.9,21.362,16.943l.2.087,19.7,10a2.3,2.3,0,0,1,1.237,2.265l-.223,2.846A2.116,2.116,0,0,1,1025.619,3.228Z"/><path class="j" d="M979.876,36.322,963.267,19.837a2.845,2.845,0,0,1,1.238-4.777L994.95,8.624a2.473,2.473,0,0,1,2.265.693l14.654,14.443a2.933,2.933,0,0,1,.173,3.948l-6.646,7.71a17.191,17.191,0,0,1-25.52.9Z"/><path class="k" d="M1034.678,11.978l-3.007,30.569a2.068,2.068,0,0,1-2.117,1.943l-36.831-1.98s9.406.681,21.225-16.386a.911.911,0,0,1,.136-.173l14.629-16.943a1.93,1.93,0,0,1,2.339-.5l2.4,1.237A2.277,2.277,0,0,1,1034.678,11.978Z"/><path class="j" d="M1051.238,69.428l-19.431,11.659a2.648,2.648,0,0,1-3.861-2.772l3.254-33.28a2.785,2.785,0,0,1,1.238-2.1l17.092-10.347a2.479,2.479,0,0,1,3.552,1.1l4.851,9.319C1062.884,52.411,1059.889,64.23,1051.238,69.428Z"/><path class="k" d="M1045.817,5.332l26.114,12.995a2.326,2.326,0,0,1,1.1,2.809L1060.47,58.265s3.354-9.418-8.242-27.054l-.112-.2L1041.448,10.53a2.351,2.351,0,0,1,.248-2.562l1.745-2.079A1.931,1.931,0,0,1,1045.817,5.332Z"/><path class="j" d="M1101.423,7.052l4.6,23.7a2.6,2.6,0,0,1-3.589,3.044l-28.465-14.121a2.822,2.822,0,0,1-1.473-1.993l-4.134-20.866a2.735,2.735,0,0,1,2.018-3.267l9.653-1.956C1089.827-10.4,1099.369-3.468,1101.423,7.052Z"/><path class="k" d="M1043.23-8.22l19.159-22.475a1.942,1.942,0,0,1,2.736-.252l.048.041,29.072,24.914s-7.327-6.51-26.324-.347h-.2l-21.226,4.3a2.057,2.057,0,0,1-2.178-1.089l-1.336-2.476A2.387,2.387,0,0,1,1043.23-8.22Z"/><path class="j" d="M1069.01-38.121l-4.84,5.71a2.468,2.468,0,0,1-2.19.87l-19.64-2.53a2.806,2.806,0,0,1-2.3-3.13l.1-.92Z"/><path class="k" d="M1039.45-38.121c-.05,1.11-.08,2.26-.09,3.47v.22l-2.48,23.13a2.1,2.1,0,0,1-1.61,1.88l-2.56.57a2.06,2.06,0,0,1-2.2-1.09l-14.28-26.94a2.273,2.273,0,0,1-.27-1.24Z"/><path class="j" d="M1015.61-38.121a3.048,3.048,0,0,1-.2,1.36l-7.96,19.35a2.483,2.483,0,0,1-3.19,1.44,2.55,2.55,0,0,1-.24-.11l-8.97-4.55a19.963,19.963,0,0,1-10.67-17.49Z"/><path class="k" d="M1025.619,3.228l-27.97,5.891a2.092,2.092,0,0,1-2.476-1.6l-10.2-38.366s2.476,9.9,21.362,16.943l.2.087,19.7,10a2.3,2.3,0,0,1,1.237,2.265l-.223,2.846A2.116,2.116,0,0,1,1025.619,3.228Z"/><path class="j" d="M979.876,36.322,963.267,19.837a2.845,2.845,0,0,1,1.238-4.777L994.95,8.624a2.473,2.473,0,0,1,2.265.693l14.654,14.443a2.933,2.933,0,0,1,.173,3.948l-6.646,7.71a17.191,17.191,0,0,1-25.52.9Z"/><path class="k" d="M1034.678,11.978l-3.007,30.569a2.068,2.068,0,0,1-2.117,1.943l-36.831-1.98s9.406.681,21.225-16.386a.911.911,0,0,1,.136-.173l14.629-16.943a1.93,1.93,0,0,1,2.339-.5l2.4,1.237A2.277,2.277,0,0,1,1034.678,11.978Z"/><path class="j" d="M1051.238,69.428l-19.431,11.659a2.648,2.648,0,0,1-3.861-2.772l3.254-33.28a2.785,2.785,0,0,1,1.238-2.1l17.092-10.347a2.479,2.479,0,0,1,3.552,1.1l4.851,9.319C1062.884,52.411,1059.889,64.23,1051.238,69.428Z"/><path class="k" d="M1045.817,5.332l26.114,12.995a2.326,2.326,0,0,1,1.1,2.809L1060.47,58.265s3.354-9.418-8.242-27.054l-.112-.2L1041.448,10.53a2.351,2.351,0,0,1,.248-2.562l1.745-2.079A1.931,1.931,0,0,1,1045.817,5.332Z"/><path class="j" d="M1101.423,7.052l4.6,23.7a2.6,2.6,0,0,1-3.589,3.044l-28.465-14.121a2.822,2.822,0,0,1-1.473-1.993l-4.134-20.866a2.735,2.735,0,0,1,2.018-3.267l9.653-1.956C1089.827-10.4,1099.369-3.468,1101.423,7.052Z"/><path class="k" d="M1043.23-8.22l19.159-22.475a1.942,1.942,0,0,1,2.736-.252l.048.041,29.072,24.914s-7.327-6.51-26.324-.347h-.2l-21.226,4.3a2.057,2.057,0,0,1-2.178-1.089l-1.336-2.476A2.387,2.387,0,0,1,1043.23-8.22Z"/></g><g class="i"><path class="j" d="M1666.728-91.157l-6.573,7.754a3.348,3.348,0,0,1-2.973,1.181l-26.67-3.435a3.809,3.809,0,0,1-3.123-4.251l.135-1.249Z"/><path class="k" d="M1626.588-91.157c-.068,1.507-.109,3.069-.123,4.712v.3L1623.1-54.737a2.846,2.846,0,0,1-2.187,2.552l-3.476.774a2.8,2.8,0,0,1-2.987-1.48l-19.392-36.582a3.088,3.088,0,0,1-.366-1.684Z"/><path class="j" d="M1594.215-91.157a4.145,4.145,0,0,1-.272,1.847l-10.809,26.276a3.372,3.372,0,0,1-4.332,1.955c-.109-.041-.217-.1-.326-.149l-12.18-6.179c-8.936-4.481-14.272-13.891-14.49-23.75Z"/><path class="k" d="M1607.806-35.008l-37.982,8a2.841,2.841,0,0,1-3.361-2.168l-13.848-52.1s3.361,13.445,29.007,23.007l.269.118,26.755,13.579a3.127,3.127,0,0,1,1.681,3.076l-.3,3.865A2.874,2.874,0,0,1,1607.806-35.008Z"/><path class="j" d="M1545.691,9.931l-22.554-22.385a3.866,3.866,0,0,1-.054-5.467,3.876,3.876,0,0,1,1.735-1.021l41.342-8.739a3.363,3.363,0,0,1,3.076.941l19.9,19.613a3.984,3.984,0,0,1,.236,5.361L1580.345,8.7a23.344,23.344,0,0,1-32.888,2.873A23.26,23.26,0,0,1,1545.691,9.931Z"/><path class="k" d="M1620.108-23.126l-4.084,41.511a2.806,2.806,0,0,1-2.874,2.638l-50.015-2.689s12.773.925,28.823-22.251a1.309,1.309,0,0,1,.184-.235l19.865-23.008a2.624,2.624,0,0,1,3.177-.672l3.26,1.681A3.093,3.093,0,0,1,1620.108-23.126Z"/><path class="j" d="M1642.594,54.887l-26.385,15.832a3.6,3.6,0,0,1-5.244-3.765l4.42-45.191a3.781,3.781,0,0,1,1.681-2.857l23.209-14.05a3.36,3.36,0,0,1,4.823,1.5l6.588,12.654C1658.409,31.779,1654.342,47.829,1642.594,54.887Z"/><path class="k" d="M1635.233-32.151l35.461,17.646a3.161,3.161,0,0,1,1.5,3.815l-17.059,50.418s4.555-12.789-11.192-36.738l-.152-.269L1629.3-25.093a3.192,3.192,0,0,1,.336-3.478l2.369-2.824A2.622,2.622,0,0,1,1635.233-32.151Z"/><path class="j" d="M1710.743-29.815l6.251,32.184a3.529,3.529,0,0,1-4.873,4.134l-38.654-19.176a3.832,3.832,0,0,1-2-2.706l-5.613-28.335a3.713,3.713,0,0,1,2.739-4.436l13.109-2.656C1694.995-53.512,1707.953-44.1,1710.743-29.815Z"/><path class="k" d="M1631.721-50.554l26.015-30.519a2.638,2.638,0,0,1,3.716-.342l.066.056,39.477,33.83s-9.949-8.84-35.746-.47h-.269l-28.823,5.832a2.79,2.79,0,0,1-2.957-1.479l-1.815-3.362A3.242,3.242,0,0,1,1631.721-50.554Z"/><path class="j" d="M1666.728-91.157l-6.573,7.754a3.348,3.348,0,0,1-2.973,1.181l-26.67-3.435a3.809,3.809,0,0,1-3.123-4.251l.135-1.249Z"/><path class="k" d="M1626.588-91.157c-.068,1.507-.109,3.069-.123,4.712v.3L1623.1-54.737a2.846,2.846,0,0,1-2.187,2.552l-3.476.774a2.8,2.8,0,0,1-2.987-1.48l-19.392-36.582a3.088,3.088,0,0,1-.366-1.684Z"/><path class="j" d="M1594.215-91.157a4.145,4.145,0,0,1-.272,1.847l-10.809,26.276a3.372,3.372,0,0,1-4.332,1.955c-.109-.041-.217-.1-.326-.149l-12.18-6.179c-8.936-4.481-14.272-13.891-14.49-23.75Z"/><path class="k" d="M1607.806-35.008l-37.982,8a2.841,2.841,0,0,1-3.361-2.168l-13.848-52.1s3.361,13.445,29.007,23.007l.269.118,26.755,13.579a3.127,3.127,0,0,1,1.681,3.076l-.3,3.865A2.874,2.874,0,0,1,1607.806-35.008Z"/><path class="j" d="M1545.691,9.931l-22.554-22.385a3.866,3.866,0,0,1-.054-5.467,3.876,3.876,0,0,1,1.735-1.021l41.342-8.739a3.363,3.363,0,0,1,3.076.941l19.9,19.613a3.984,3.984,0,0,1,.236,5.361L1580.345,8.7a23.344,23.344,0,0,1-32.888,2.873A23.26,23.26,0,0,1,1545.691,9.931Z"/><path class="k" d="M1620.108-23.126l-4.084,41.511a2.806,2.806,0,0,1-2.874,2.638l-50.015-2.689s12.773.925,28.823-22.251a1.309,1.309,0,0,1,.184-.235l19.865-23.008a2.624,2.624,0,0,1,3.177-.672l3.26,1.681A3.093,3.093,0,0,1,1620.108-23.126Z"/><path class="j" d="M1642.594,54.887l-26.385,15.832a3.6,3.6,0,0,1-5.244-3.765l4.42-45.191a3.781,3.781,0,0,1,1.681-2.857l23.209-14.05a3.36,3.36,0,0,1,4.823,1.5l6.588,12.654C1658.409,31.779,1654.342,47.829,1642.594,54.887Z"/><path class="k" d="M1635.233-32.151l35.461,17.646a3.161,3.161,0,0,1,1.5,3.815l-17.059,50.418s4.555-12.789-11.192-36.738l-.152-.269L1629.3-25.093a3.192,3.192,0,0,1,.336-3.478l2.369-2.824A2.622,2.622,0,0,1,1635.233-32.151Z"/><path class="j" d="M1710.743-29.815l6.251,32.184a3.529,3.529,0,0,1-4.873,4.134l-38.654-19.176a3.832,3.832,0,0,1-2-2.706l-5.613-28.335a3.713,3.713,0,0,1,2.739-4.436l13.109-2.656C1694.995-53.512,1707.953-44.1,1710.743-29.815Z"/><path class="k" d="M1631.721-50.554l26.015-30.519a2.638,2.638,0,0,1,3.716-.342l.066.056,39.477,33.83s-9.949-8.84-35.746-.47h-.269l-28.823,5.832a2.79,2.79,0,0,1-2.957-1.479l-1.815-3.362A3.242,3.242,0,0,1,1631.721-50.554Z"/></g><g class="i"><path class="k" d="M391.67-38.121a2.6,2.6,0,0,1-1.15.63l-3.12.68a2.482,2.482,0,0,1-2.7-1.31Z"/><path class="k" d="M381.06-27.871l-.34,3.36a2.6,2.6,0,0,1-1.98,2.39l-34.04,7.17a2.371,2.371,0,0,1-.84,0,2.424,2.424,0,0,1-1.27-.6,2.529,2.529,0,0,1-.81-1.34l-5.63-21.23h28.7l14.77,7.5A2.791,2.791,0,0,1,381.06-27.871Z"/><path class="j" d="M323.045,18.141,302.871-1.921A3.453,3.453,0,0,1,302.79-6.8a3.447,3.447,0,0,1,1.542-.922l37.042-7.822a3.006,3.006,0,0,1,2.76.842L362.005,2.881a3.577,3.577,0,0,1,.223,4.827l-8.094,9.369a20.9,20.9,0,0,1-29.448,2.6A20.851,20.851,0,0,1,323.045,18.141Z"/><path class="k" d="M389.876-11.475l-3.713,37.191a2.475,2.475,0,0,1-2.57,2.376h0l-44.814-2.475s11.448.816,25.829-19.939l.161-.21,17.8-20.619a2.377,2.377,0,0,1,2.859-.606l2.921,1.435A2.787,2.787,0,0,1,389.876-11.475Z"/><path class="j" d="M409.926,58.414,386.275,72.621a3.229,3.229,0,0,1-4.7-3.378l3.96-40.532a3.343,3.343,0,0,1,1.56-2.476l20.779-12.6a3.069,3.069,0,0,1,4.191,1.13c.033.055.063.112.091.17l5.941,11.3C424.1,37.733,420.433,52.1,409.926,58.414Z"/><path class="k" d="M403.354-19.557,435.136-3.728a2.8,2.8,0,0,1,1.324,3.4L421.176,44.8s4.1-11.461-10.025-32.921l-.136-.235L398.032-13.294a2.835,2.835,0,0,1,.31-3.119l2.116-2.475A2.363,2.363,0,0,1,403.354-19.557Z"/><path class="j" d="M470.99-17.465l5.594,28.849a3.181,3.181,0,0,1-4.369,3.713l-34.591-17.2a3.428,3.428,0,0,1-1.807-2.476l-5.025-25.334a3.318,3.318,0,0,1,2.474-3.985h0l11.745-2.376C456.869-38.7,468.49-30.287,470.99-17.465Z"/><path class="k" d="M462.14-33.511c-1.08-.85-10.28-7.34-31.92-.33h-.24l-25.82,5.29a2.469,2.469,0,0,1-2.66-1.33l-1.62-2.99a2.833,2.833,0,0,1,.31-3.17l1.77-2.08h54.81Z"/><path class="k" d="M391.67-38.121a2.6,2.6,0,0,1-1.15.63l-3.12.68a2.482,2.482,0,0,1-2.7-1.31Z"/><path class="k" d="M381.06-27.871l-.34,3.36a2.6,2.6,0,0,1-1.98,2.39l-34.04,7.17a2.371,2.371,0,0,1-.84,0,2.424,2.424,0,0,1-1.27-.6,2.529,2.529,0,0,1-.81-1.34l-5.63-21.23h28.7l14.77,7.5A2.791,2.791,0,0,1,381.06-27.871Z"/><path class="j" d="M323.045,18.141,302.871-1.921A3.453,3.453,0,0,1,302.79-6.8a3.447,3.447,0,0,1,1.542-.922l37.042-7.822a3.006,3.006,0,0,1,2.76.842L362.005,2.881a3.577,3.577,0,0,1,.223,4.827l-8.094,9.369a20.9,20.9,0,0,1-29.448,2.6A20.851,20.851,0,0,1,323.045,18.141Z"/><path class="k" d="M389.876-11.475l-3.713,37.191a2.475,2.475,0,0,1-2.57,2.376h0l-44.814-2.475s11.448.816,25.829-19.939l.161-.21,17.8-20.619a2.377,2.377,0,0,1,2.859-.606l2.921,1.435A2.787,2.787,0,0,1,389.876-11.475Z"/><path class="j" d="M409.926,58.414,386.275,72.621a3.229,3.229,0,0,1-4.7-3.378l3.96-40.532a3.343,3.343,0,0,1,1.56-2.476l20.779-12.6a3.069,3.069,0,0,1,4.191,1.13c.033.055.063.112.091.17l5.941,11.3C424.1,37.733,420.433,52.1,409.926,58.414Z"/><path class="k" d="M403.354-19.557,435.136-3.728a2.8,2.8,0,0,1,1.324,3.4L421.176,44.8s4.1-11.461-10.025-32.921l-.136-.235L398.032-13.294a2.835,2.835,0,0,1,.31-3.119l2.116-2.475A2.363,2.363,0,0,1,403.354-19.557Z"/><path class="j" d="M470.99-17.465l5.594,28.849a3.181,3.181,0,0,1-4.369,3.713l-34.591-17.2a3.428,3.428,0,0,1-1.807-2.476l-5.025-25.334a3.318,3.318,0,0,1,2.474-3.985h0l11.745-2.376C456.869-38.7,468.49-30.287,470.99-17.465Z"/><path class="k" d="M462.14-33.511c-1.08-.85-10.28-7.34-31.92-.33h-.24l-25.82,5.29a2.469,2.469,0,0,1-2.66-1.33l-1.62-2.99a2.833,2.833,0,0,1,.31-3.17l1.77-2.08h54.81Z"/></g><path class="h" d="M275.06,461.879q1.8-4.74,3.49-9.54c18.18-51.36,27.49-108.6,18.57-168.82-10.69-72.09-45.66-135.94-78.04-187.74l-1.65-2.64c-6.28-10.01-12.45-19.56-18.31-28.62a838.311,838.311,0,0,0-78.14-102.64"/><path class="l" d="M1920-38.121v490.55c-80.26-19.16-153.13-69.34-183.44-122.64a126.3,126.3,0,0,1-9.55-20.75q-16.02-45.81-22.78-86.51c-7.21-42.8-7.01-81.15,0-114.62,15.58-74.55,64.86-124.87,140.82-146.03Z"/><path class="h" d="M1920,182.919c-22.12,79.42-95.29,118.1-183.44,146.87q-15.87,5.19-32.33,9.99c-.55.16-1.1.33-1.66.49q-2.67.78-5.36,1.56c-62.57,18.1-129.66,33.69-189.85,56.54-42.92,16.29-82.33,36.28-114.07,63.51"/><g class="i"><path class="j" d="M1739.427,448.28,1684,398.562a9.553,9.553,0,0,1,4.185-15.9l102.974-28.373a8.2,8.2,0,0,1,7.614,1.714l49.109,43.628a9.308,9.308,0,0,1,.5,12.889l-22.729,26.735C1802.667,466.361,1764.155,470.386,1739.427,448.28Z"/><path class="k" d="M1925.382,355.49l-11.189,100.529a7.585,7.585,0,0,1-7.2,6.853l-124.229,2.481s31.739-.056,72.187-58.624a5.223,5.223,0,0,1,.439-.644l49.967-58.78a7.053,7.053,0,0,1,7.937-2.183l8.076,3.22A6.888,6.888,0,0,1,1925.382,355.49Z"/><path class="j" d="M1916.747,457.3l57.994-38.177a8.205,8.205,0,0,1,11.443,1.911,6.5,6.5,0,0,1,.522.843l7.96,14.46-94.512,138.727a8.061,8.061,0,0,1,.145-1.364l12.163-109.4A9.636,9.636,0,0,1,1916.747,457.3Z"/><path class="k" d="M1949.285,337.887l5.971-7.232a6.993,6.993,0,0,1,8.087-2.134l81.836,33.677-47.807,70.172a207.2,207.2,0,0,0-13.181-21.133l-.373-.6-35.349-64.267A7.668,7.668,0,0,1,1949.285,337.887Z"/><path class="j" d="M2046.279,286.6l32.82-8.614a56.611,56.611,0,0,1,24.395-1.383l-52.951,77.724-11.194-56.534A9.788,9.788,0,0,1,2046.279,286.6Z"/><path class="k" d="M1954.72,287.511l65.384-78.185a6.894,6.894,0,0,1,9.437-1.406L2057.158,229l51.821,39.553-4.6,6.754c-14.23-1.372-35.807.4-66.364,12.156a5.813,5.813,0,0,1-.7.217l-71.719,19.146a6.432,6.432,0,0,1-7.369-3.036l-4.583-7.84A7.677,7.677,0,0,1,1954.72,287.511Z"/><path class="j" d="M1949.563,155.7l73.669,50.189a9.012,9.012,0,0,1-4.365,1.014l-66.2-3.523a8.181,8.181,0,0,1-7.669-9.648l4.083-34.616C1949.217,157.968,1949.373,156.82,1949.563,155.7Z"/><path class="k" d="M1866.748,190.823l63.777-48.1,17.742,12.087c-3.181,12.336-5.477,27.922-5.788,47.419l-.064.757-8.994,76.122a7.725,7.725,0,0,1-5.494,6.53l-8.653,2.428a6.379,6.379,0,0,1-7.428-3.076l-47.33-84.479A7.686,7.686,0,0,1,1866.748,190.823Z"/><path class="j" d="M1762.664,176.417l31.717-73.644a8.652,8.652,0,0,1,15.552-1.709l51.524,91.858a9.35,9.35,0,0,1,.349,8.225l-27.685,65.031a9.1,9.1,0,0,1-11.64,5.216l-30.111-12.675C1761.885,245.938,1748.6,209.152,1762.664,176.417Z"/><path class="k" d="M1893.69,327l-94.626,26.023a6.479,6.479,0,0,1-8-4.461q-.025-.09-.048-.18L1757.858,225.78s7.95,31.512,71.526,50.119l.542.369,66.189,27.879a6.765,6.765,0,0,1,3.966,7.067l-.958,9.27A7.832,7.832,0,0,1,1893.69,327Z"/><path class="j" d="M1739.427,448.28,1684,398.562a9.553,9.553,0,0,1,4.185-15.9l102.974-28.373a8.2,8.2,0,0,1,7.614,1.714l49.109,43.628a9.308,9.308,0,0,1,.5,12.889l-22.729,26.735C1802.667,466.361,1764.155,470.386,1739.427,448.28Z"/><path class="k" d="M1925.382,355.49l-11.189,100.529a7.585,7.585,0,0,1-7.2,6.853l-124.229,2.481s31.739-.056,72.187-58.624a5.223,5.223,0,0,1,.439-.644l49.967-58.78a7.053,7.053,0,0,1,7.937-2.183l8.076,3.22A6.888,6.888,0,0,1,1925.382,355.49Z"/><path class="j" d="M1916.747,457.3l57.994-38.177a8.205,8.205,0,0,1,11.443,1.911,6.5,6.5,0,0,1,.522.843l7.96,14.46-94.512,138.727a8.061,8.061,0,0,1,.145-1.364l12.163-109.4A9.636,9.636,0,0,1,1916.747,457.3Z"/><path class="k" d="M1949.285,337.887l5.971-7.232a6.993,6.993,0,0,1,8.087-2.134l81.836,33.677-47.807,70.172a207.2,207.2,0,0,0-13.181-21.133l-.373-.6-35.349-64.267A7.668,7.668,0,0,1,1949.285,337.887Z"/><path class="j" d="M2046.279,286.6l32.82-8.614a56.611,56.611,0,0,1,24.395-1.383l-52.951,77.724-11.194-56.534A9.788,9.788,0,0,1,2046.279,286.6Z"/><path class="k" d="M1954.72,287.511l65.384-78.185a6.894,6.894,0,0,1,9.437-1.406L2057.158,229l51.821,39.553-4.6,6.754c-14.23-1.372-35.807.4-66.364,12.156a5.813,5.813,0,0,1-.7.217l-71.719,19.146a6.432,6.432,0,0,1-7.369-3.036l-4.583-7.84A7.677,7.677,0,0,1,1954.72,287.511Z"/><path class="j" d="M1949.563,155.7l73.669,50.189a9.012,9.012,0,0,1-4.365,1.014l-66.2-3.523a8.181,8.181,0,0,1-7.669-9.648l4.083-34.616C1949.217,157.968,1949.373,156.82,1949.563,155.7Z"/><path class="k" d="M1866.748,190.823l63.777-48.1,17.742,12.087c-3.181,12.336-5.477,27.922-5.788,47.419l-.064.757-8.994,76.122a7.725,7.725,0,0,1-5.494,6.53l-8.653,2.428a6.379,6.379,0,0,1-7.428-3.076l-47.33-84.479A7.686,7.686,0,0,1,1866.748,190.823Z"/><path class="j" d="M1762.664,176.417l31.717-73.644a8.652,8.652,0,0,1,15.552-1.709l51.524,91.858a9.35,9.35,0,0,1,.349,8.225l-27.685,65.031a9.1,9.1,0,0,1-11.64,5.216l-30.111-12.675C1761.885,245.938,1748.6,209.152,1762.664,176.417Z"/><path class="k" d="M1893.69,327l-94.626,26.023a6.479,6.479,0,0,1-8-4.461q-.025-.09-.048-.18L1757.858,225.78s7.95,31.512,71.526,50.119l.542.369,66.189,27.879a6.765,6.765,0,0,1,3.966,7.067l-.958,9.27A7.832,7.832,0,0,1,1893.69,327Z"/></g></g></g></svg>