<svg xmlns="http://www.w3.org/2000/svg" xmlns:xlink="http://www.w3.org/1999/xlink" viewBox="0 0 304.45 486.6"><defs><style>.cls-1{fill:url(#radial-gradient);}.cls-2{fill:url(#linear-gradient);}.cls-3,.cls-4{fill:none;}.cls-3{stroke:#c8cde8;stroke-miterlimit:10;stroke-width:1.27px;stroke-dasharray:15.24 30.5;}.cls-3,.cls-5{opacity:0.29;}.cls-3,.cls-7{isolation:isolate;}.cls-6,.cls-7{fill:#c8cde8;}.cls-7{opacity:0.18;}</style><radialGradient id="radial-gradient" cx="152.28" cy="239.22" r="200.84" gradientUnits="userSpaceOnUse"><stop offset="0.04" stop-color="#3e56a6"/><stop offset="0.92" stop-color="#31498a"/></radialGradient><linearGradient id="linear-gradient" x1="152.28" y1="0.22" x2="152.28" y2="270.86" gradientUnits="userSpaceOnUse"><stop offset="0" stop-color="#3e56a6"/><stop offset="0.93" stop-color="#31498a"/></linearGradient></defs><title>Asset 3</title><g id="Layer_2" data-name="Layer 2"><g id="Layer_1-2" data-name="Layer 1"><rect class="cls-1" x="0.1" y="0.22" width="304.35" height="478"/><path class="cls-2" d="M304.45.22V144.5l-.51.43c-.85.71-1.69,1.43-2.55,2.12q-13,10.78-26.43,20.27c-9.37,6.68-18.82,12.92-28.26,18.73-78.18,48.16-155.24,67.56-175.95,72.41A623.06,623.06,0,0,1,.1,270.86V.22Z"/><path class="cls-3" d="M134.65.22q1.46,4,2.83,8l.15.43c14,40.36,22.22,77.63,4.65,96C102,146.76,52.73,149.24.1,140.47"/><polyline class="cls-4" points="0.1 8.17 0.1 7.16 0.1 6.73 0.1 0.22 6.16 0.22 30.21 0.22 57.23 0.22 60.8 0.22 62.81 0.22"/><polyline class="cls-4" points="86.5 0.22 87.25 0.22 134.66 0.22 304.45 0.22 304.45 8.6 304.45 144.5 304.45 478.22 0.1 478.22 0.1 270.86 0.1 162.19 0.1 140.47 0.1 58.67"/><line class="cls-4" x1="0.1" y1="35.05" x2="0.1" y2="14.48"/><g class="cls-5"><path class="cls-6" d="M12.65,5.38l-.1,1.35,0,.43L12.4,8.64a2.44,2.44,0,0,1-1.88,2.21L.1,13V.22H6.15l5.08,2.57A2.64,2.64,0,0,1,12.65,5.38Z"/><path class="cls-6" d="M20.9,20.85l-3.44,35A2.37,2.37,0,0,1,15,58L.1,57.23V33.61l14-16.15a2.21,2.21,0,0,1,2.68-.57L19.5,18.3A2.61,2.61,0,0,1,20.9,20.85Z"/><path class="cls-7" d="M39.88,86.55,17.62,99.88a3,3,0,0,1-4.11-1.24,3.08,3.08,0,0,1-.32-1.93l3.73-38.06a3.19,3.19,0,0,1,1.42-2.4L37.92,44.42a2.84,2.84,0,0,1,3.9.93c.06.11.12.22.17.33l5.56,10.65C53.22,67.09,49.79,80.61,39.88,86.55Z"/><path class="cls-6" d="M33.67,13.25,63.58,28.11a2.66,2.66,0,0,1,1.26,3.22L50.45,73.78S54.3,63,41,42.85l-.13-.23L28.66,19.2A2.7,2.7,0,0,1,29,16.27l2-2.38A2.21,2.21,0,0,1,33.67,13.25Z"/><path class="cls-7" d="M100.55,46a3,3,0,0,1-2-.17L65.92,29.66a3.22,3.22,0,0,1-1.69-2.28l-4-20.22-.08-.43-.64-3.21A3.12,3.12,0,0,1,60.8.22H87.25A21.94,21.94,0,0,1,93.9,6.73c.09.14.19.28.28.43a23.45,23.45,0,0,1,3.18,8.06l5.28,27.1A3,3,0,0,1,100.55,46Z"/><path class="cls-6" d="M57.22.22,34.44,4.82A2.36,2.36,0,0,1,32,3.57L30.42.74a2.57,2.57,0,0,1-.21-.52Z"/><path class="cls-6" d="M12.65,5.38l-.1,1.35,0,.43L12.4,8.64a2.44,2.44,0,0,1-1.88,2.21L.1,13V.22H6.15l5.08,2.57A2.64,2.64,0,0,1,12.65,5.38Z"/><path class="cls-6" d="M20.9,20.85l-3.44,35A2.37,2.37,0,0,1,15,58L.1,57.23V33.61l14-16.15a2.21,2.21,0,0,1,2.68-.57L19.5,18.3A2.61,2.61,0,0,1,20.9,20.85Z"/><path class="cls-7" d="M39.88,86.55,17.62,99.88a3,3,0,0,1-4.11-1.24,3.08,3.08,0,0,1-.32-1.93l3.73-38.06a3.19,3.19,0,0,1,1.42-2.4L37.92,44.42a2.84,2.84,0,0,1,3.9.93c.06.11.12.22.17.33l5.56,10.65C53.22,67.09,49.79,80.61,39.88,86.55Z"/><path class="cls-6" d="M33.67,13.25,63.58,28.11a2.66,2.66,0,0,1,1.26,3.22L50.45,73.78S54.3,63,41,42.85l-.13-.23L28.66,19.2A2.7,2.7,0,0,1,29,16.27l2-2.38A2.21,2.21,0,0,1,33.67,13.25Z"/><path class="cls-7" d="M100.55,46a3,3,0,0,1-2-.17L65.92,29.66a3.22,3.22,0,0,1-1.69-2.28l-4-20.22-.08-.43-.64-3.21A3.12,3.12,0,0,1,60.8.22H87.25A21.94,21.94,0,0,1,93.9,6.73c.09.14.19.28.28.43a23.45,23.45,0,0,1,3.18,8.06l5.28,27.1A3,3,0,0,1,100.55,46Z"/><path class="cls-6" d="M57.22.22,34.44,4.82A2.36,2.36,0,0,1,32,3.57L30.42.74a2.57,2.57,0,0,1-.21-.52Z"/></g><path class="cls-4" d="M31.53,486l.3.57H27.62l.18-.42A2,2,0,0,1,30.42,485,2,2,0,0,1,31.53,486Z"/><line class="cls-4" x1="0.1" y1="35.05" x2="0.1" y2="14.48"/><line class="cls-4" x1="84.51" y1="0.22" x2="66.74" y2="0.22"/><line class="cls-4" x1="0.1" y1="8.6" x2="0.1" y2="8.17"/></g></g></svg>