<svg xmlns="http://www.w3.org/2000/svg" xmlns:xlink="http://www.w3.org/1999/xlink" width="1920.362" height="446.845" viewBox="0 0 1920.362 446.845"><defs><style>.a{fill:#fff;}.b{fill:url(#a);}.c{fill:url(#b);}.d{fill:#ee2927;opacity:0.75;}.ae,.ag,.e{fill:#c8cde8;}.f{fill:#d8ddf0;}.g,.s,.t{fill:#3e56a6;}.h{fill:#31498a;}.aa,.ac,.ad,.ah,.ar,.as,.i,.k,.l,.n,.o{fill:none;}.i{stroke:#31498a;stroke-width:0.83px;}.aa,.ac,.ad,.ar,.as,.i,.k,.l,.n,.o{stroke-miterlimit:10;}.j{fill:#4b54a4;}.k,.l{stroke:#ef4c88;}.k{stroke-width:0.86px;}.l{stroke-width:0.92px;}.m{fill:#334882;}.n,.o{stroke:#4b5159;}.n{stroke-width:3.68px;}.o{stroke-width:3.49px;}.p{fill:#4b5159;}.q{fill:#b4d6e6;}.r,.v{fill:#141f31;}.s{opacity:0.2;}.ap,.t{opacity:0.14;}.u{fill:#f1bf5e;}.v{opacity:0.06;}.w{fill:#52494b;}.x{fill:#f2af34;}.y{fill:#f3bd66;}.z{fill:#e99123;}.aa{stroke:#f2af34;stroke-width:4.65px;}.ab{fill:#777275;}.ac,.ad,.ar,.as{stroke:#c8cde8;}.ac{stroke-width:2px;}.ad{stroke-width:1.72px;}.ae,.af,.ar,.as{opacity:0.29;}.ag{opacity:0.18;}.ai{fill:#7f52a1;}.aj{fill:#4779bc;}.ak{fill:#52a668;}.al{fill:#e14b9b;}.am{fill:#2e3192;}.an{fill:#ef4c88;}.ao{fill:#fbb040;}.ap{fill:#6d6e71;}.aq{fill:#f38b66;}.ar{stroke-width:0.9px;stroke-dasharray:10.76 21.53;}.as{stroke-dasharray:12 24;}</style><radialGradient id="a" cx="0.5" cy="0.5" r="0.942" gradientTransform="translate(0.298) scale(0.405 1)" gradientUnits="objectBoundingBox"><stop offset="0.04" stop-color="#3e56a6"/><stop offset="0.92" stop-color="#31498a"/></radialGradient><radialGradient id="b" cx="0.5" cy="0.5" r="0.442" gradientTransform="translate(-0.164) scale(1.329 1)" gradientUnits="objectBoundingBox"><stop offset="0" stop-color="#3e56a6"/><stop offset="0.93" stop-color="#31498a"/></radialGradient></defs><g transform="translate(0.004 0.005)"><rect class="a" width="1849.51" height="440" transform="translate(70.59 0.22)"/><path class="b" d="M1059.52,415l-95.93,25.24H.1V.22H903.41l.32,2a895.634,895.634,0,0,0,47,176.76c23.65,62.37,79.33,121.24,127.16,176.63A36.62,36.62,0,0,1,1059.52,415Z"/><path class="c" d="M1920.1.22v440H1732L1623.7,414.8c-30.44-7.14-44.4-42.32-27.32-68.52a885.515,885.515,0,0,0,76.83-146A885.848,885.848,0,0,0,1729,2.55l.37-2.33Z"/><ellipse class="d" cx="123.29" cy="21.35" rx="123.29" ry="21.35" transform="translate(1211.03 374.51)"/><rect class="e" width="98.39" height="77.24" transform="translate(1159.26 76.45)"/><rect class="f" width="93.21" height="73.17" rx="11.15" transform="translate(1161.85 78.48)"/><path class="g" d="M1383.21,223.82h0a61.767,61.767,0,0,0-.75-7.78,59.993,59.993,0,0,0-3.74-13.43c-1.65-3.9-3.5-6.77-5.16-7.95h0a3.209,3.209,0,0,0-.54-.34,72.649,72.649,0,0,0-22.88-7.19h-.08a59.9,59.9,0,0,0-8-.53q-6.16,0-11.78.54h0c-11.25,1.08-20.74,3.75-28,7.75h0l-1,.57-.1.06h-.05a36.51,36.51,0,0,0-7.44,5.66h0l-.06.06a25.14,25.14,0,0,0-7.69,18.18c-3,2.07-1.2,10.38-1.2,10.38-.47,2.31,1.24.9,2.84,2.63a12.688,12.688,0,0,1,1.74,2.91h0a30.436,30.436,0,0,1,2.27,7.58V243h0c.06.39.11.75.15,1.11h0a9.472,9.472,0,0,1-.09,3.13h0a2.3,2.3,0,0,1-.28.67c11.81.11,77.21,7.45,77.21,7.45a27.269,27.269,0,0,0,8.64-8,.716.716,0,0,0,.1-.14h0a.154.154,0,0,1,.08-.12,33.549,33.549,0,0,0,5.08-12.81.716.716,0,0,1,.07-.37h0A49.589,49.589,0,0,0,1383.21,223.82Zm-93.4,24.57a1.09,1.09,0,0,0,1.53-.4c-1.63.01-2.24.1-1.53.4Z"/><circle class="h" cx="1.2" cy="1.2" r="1.2" transform="translate(1332.26 157.09)"/><circle class="h" cx="1.2" cy="1.2" r="1.2" transform="translate(1347.94 156.78)"/><path class="i" d="M1341.61,158.75s1.23,4.6.63,7.42a2.69,2.69,0,0,1-3.38,2.13"/><path class="i" d="M1334.38,173.62s.41,2.72,6.2,2.94"/><path class="h" d="M1327.65,368.18c-6.27,1.06-12.47,3.37-18.83,3.19,0,0-9.13,7.67-17.44,9.26s-6.57,5.36-6.57,5.36l44.92-.87v-4.78Z"/><path class="j" d="M1284.37,385.02l.86,3.22,44.94-1.61v-2.89Z"/><path class="h" d="M1350.89,371.66a11.831,11.831,0,0,0,4.52,2.36,11.71,11.71,0,0,0,9.63-1.63s3.06,10.65.7,16.26-18.52-1.09-18.52-1.09A37.181,37.181,0,0,1,1350.89,371.66Z"/><path class="j" d="M1366.42,387.63l-.16,3.82-19.19-.9-.18-3.42Z"/><circle class="k" cx="6.63" cy="6.63" r="6.63" transform="translate(1326.83 151.66)"/><path class="k" d="M1355.82,154.91a3.89,3.89,0,0,1,4.47-1"/><path class="l" d="M1320.38,154.94a4.909,4.909,0,0,1,2.09-.46,5.31,5.31,0,0,1,4.47,2.56"/><circle class="k" cx="6.63" cy="6.63" r="6.63" transform="translate(1343.13 151.66)"/><path class="k" d="M1339.82,157.55a6.771,6.771,0,0,1,2-.31,6.58,6.58,0,0,1,1.35.13"/><path class="m" d="M1302.34,194.77c-11.4,6.85-29.38,26.59-29.38,26.59s-28.36,19.5-27.75,19.38c4.66-1,15,1.37,13.75,4.45-1.64,4,31.68-11.25,33.45-10.64,1,.35,0,0,0-1C1292.57,223.2,1297.83,201.75,1302.34,194.77Z"/><path class="m" d="M1373,194.32c10.12,6.08,23.76,19.35,28.73,25.89,2.27,3,7.71,14.78,5.34,20.07-2,4.46-18.09,7.64-19.95,7.66-36.24.43-.5-15.68-.77-16.11C1383.17,226.64,1377,200.49,1373,194.32Z"/><rect class="e" width="90.91" height="44.61" rx="4.14" transform="translate(1291.55 202.58)"/><path class="n" d="M1336.75,338.75s26.53-2.52,22.21,26.11"/><path class="o" d="M1335.15,338.74s-25.87-2.2-21.66,22.83"/><rect class="p" width="64.11" height="3.85" transform="translate(1337.33 297.47) rotate(90)"/><rect class="p" width="58.06" height="6.62" rx="3.31" transform="translate(1306.38 293.69)"/><ellipse class="g" cx="22.87" cy="22.57" rx="22.87" ry="22.57" transform="translate(1317.36 122.26)"/><circle class="q" cx="9.94" cy="9.94" r="9.94" transform="translate(1330.28 177.98)"/><path class="q" d="M1350.02,189.56l-19.74-.83v-9.92h19.88Z"/><rect class="g" width="359.06" height="14.09" transform="translate(1156.38 247.32)"/><rect class="r" width="119.26" height="6.56" transform="translate(1170.15 268.99) rotate(90)"/><rect class="r" width="119.26" height="6.56" transform="translate(1508.91 268.99) rotate(90)"/><path class="s" d="M1330.28,177.54v3.32l19.88,6.07V174.8Z"/><rect class="q" width="37.55" height="52.73" rx="18.775" transform="translate(1321.88 129.26)"/><path class="g" d="M1324.56,152.8s22.36-22.79,23.67-12.44c1.58,12.41,13.23,9.19,13.23,9.19l-5.55-18.75s-3.91-8.42-12.64-7.81c-35.47,2.47-21.39,39.06-21.39,39.06Z"/><circle class="q" cx="4.34" cy="4.34" r="4.34" transform="translate(1353.19 152.41)"/><path class="g" d="M1324.44,154.75s16.09-1.06,24.33-12.14-5-11.09-5-11.09l-9.68,3.55-8.18,8.07-1.9,11.61Z"/><circle class="q" cx="4.34" cy="4.34" r="4.34" transform="translate(1318.6 154.4)"/><rect class="g" width="1.9" height="10.58" rx="0.14" transform="translate(1332.928 131.44) rotate(-170.68)"/><rect class="g" width="1.75" height="10.58" rx="0.12" transform="translate(1339.015 127.234) rotate(115.26)"/><rect class="g" width="2.2" height="10.62" rx="0.16" transform="matrix(-0.849, 0.529, -0.529, -0.849, 1337.193, 129.401)"/><rect class="r" width="100.08" height="25.54" rx="1.37" transform="translate(1292.12 268.18)"/><path class="r" d="M1376.6,269.65s27.71,5.66,26,20.6-36.87,78.18-36.87,78.18h-18L1367.29,298l-27-12.29V267Z"/><path class="r" d="M1296.42,270.65s-27.72,5.34-26,19.43,36.87,73.79,36.87,73.79h18l-19.53-66.45,27-11.6V268.18Z"/><rect class="h" width="345.32" height="7.58" transform="translate(1163.59 261.58)"/><path class="t" d="M1295.69,247.19h82.63a4.14,4.14,0,0,0,4.14-4.14V206.72a4.14,4.14,0,0,0-4.14-4.14l-86.77,40.47A4.14,4.14,0,0,0,1295.69,247.19Z"/><path class="q" d="M1246.47,241.68s6.65-.26,7.68-.14,3.74,1.68,3.57,2.63a2,2,0,0,1-1,1.6l-2.29.89a2.941,2.941,0,0,1-.78.17l-8.07.48c-1.19.07-1.38-.72-1.67-1.88s-.51-3.61,1.64-3.61Z"/><path class="u" d="M1257.81,247.6h-14.15c0-2.12,3.16-3.84,7.07-3.84S1257.81,245.48,1257.81,247.6Z"/><path class="v" d="M1257.81,247.6h-6.13c0-2.12-4.86-3.84-1-3.84S1257.81,245.48,1257.81,247.6Z"/><rect class="w" width="36.24" height="8.39" transform="translate(1460.23 239.04)"/><path class="x" d="M1478.35,207.65c.38,13.39-5.47,24-18.12,31.39h36.24C1484.54,232.77,1478.83,222.07,1478.35,207.65Z"/><path class="y" d="M1478.35,207.65c.38,13.39-.83,24-13.47,31.39h31.59C1484.54,232.77,1478.83,222.07,1478.35,207.65Z"/><path class="x" d="M1478.35,207.65c.38,13.39.5,21.66-8.82,31.39h26.94C1484.54,232.77,1478.83,222.07,1478.35,207.65Z"/><path class="z" d="M1478.35,207.65c.38,13.39,0,16.88,9.57,31.39h8.55C1484.54,232.77,1478.83,222.07,1478.35,207.65Z"/><path class="aa" d="M1441.25,177.8c0,17.13,16.61,31,37.09,31s37.1-13.88,37.1-31Z"/><path class="z" d="M1506.61,167.42c-2.81,23.86-14.39,47.59-28.27,47.59,7.92,0,14.53-23.73,16.13-47.59Z"/><path class="x" d="M1494.47,167.42c-1.6,23.86-8.21,47.59-16.13,47.59-13.62,0-25.08-23.2-28.12-46.52-.06-.35-.09-.7-.12-1.07Z"/><path class="y" d="M1494.47,167.42c-1.6,23.86-8.21,47.59-16.13,47.59-10.31,0-19-23.2-21.28-46.52,0-.35-.08-.7-.11-1.07Z"/><path class="x" d="M1494.47,167.42c-1.6,23.86-8.21,47.59-16.13,47.59-7.76,0-14.3-23.2-16-46.52a6.515,6.515,0,0,0-.06-1.07Z"/><rect class="ab" width="4.65" height="8.39" transform="translate(1464.88 239.04)"/><path class="i" d="M1334.47,173.07s.4,2.72,6.19,3"/><line class="ac" x2="85.98" transform="translate(1166.13 92.86)"/><line class="ac" x2="85.98" transform="translate(1166.13 99.16)"/><line class="ac" x2="76.33" transform="translate(1166.13 105.45)"/><line class="ac" x2="85.98" transform="translate(1166.13 111.75)"/><line class="ad" x2="41.68" transform="translate(1165.6 117.21)"/><line class="ad" x2="73.76" transform="translate(1165.6 122.26)"/><line class="ad" x2="40.03" transform="translate(1165.6 127.66)"/><line class="ad" x2="41.68" transform="translate(1165.6 133.07)"/><path class="ae" d="M1257.65,153.69l-98.39-77.24h98.39Z"/><path class="d" d="M1235.08,163.13l-2.57-3.43-2.58,3.43V141.39h5.15Z"/><path class="g" d="M1240.22,163.13l-2.57-3.43-2.57,3.43V141.39h5.14Z"/><circle class="x" cx="10.29" cy="10.29" r="10.29" transform="translate(1224.79 130.54)"/><path class="y" d="M1235.08,151.12a10.29,10.29,0,1,1,0-20.57Z"/><g class="af"><path class="ag" d="M932.87,226.28l42.51,10.44c4,1,5.3,6.45,2.21,9.38l-45.48,43.17a4.77,4.77,0,0,1-4.43,1.22l-37.5-9a5.46,5.46,0,0,1-3.8-6.54l4.36-20.15C895.12,234.38,914,221.64,932.87,226.28Z"/><path class="e" d="M862.2,325.73l-22-55.16A4.48,4.48,0,0,1,842,265l63.68-35.61s-16.42,8.8-21.19,50.32a3.35,3.35,0,0,1-.07.44l-9.59,44.28a4.12,4.12,0,0,1-3.5,3.32l-5.08.55A4,4,0,0,1,862.2,325.73Z"/><path class="ag" d="M783.57,245.54l22.35-40.4a4.88,4.88,0,0,1,9,.63l24,60a5.79,5.79,0,0,1-.29,4.91L819,306.39a4.84,4.84,0,0,1-6.94,1.89l-16.41-10.71C779.05,286.78,773.64,263.52,783.57,245.54Z"/><path class="e" d="M850,350.2l-55.42,5.54a4.07,4.07,0,0,1-4.32-3.6l-11.71-76.35s2.68,19.57,37.8,37.29a2.713,2.713,0,0,1,.37.21l36.07,23.52a4.46,4.46,0,0,1,1.84,4.62l-1.08,5.39A4.12,4.12,0,0,1,850,350.2Z"/><path class="ag" d="M754.42,404.69l-28.71-35.41c-2.7-3.34-.77-8.58,3.32-9l60.32-6.08a4.88,4.88,0,0,1,4.25,1.8L819,387.12a5.75,5.75,0,0,1-.48,7.71L804,408.36C789.37,422.08,767.2,420.44,754.42,404.69Z"/><path class="e" d="M865.77,369.05l-12.25,58.59A4,4,0,0,1,849,431l-70.9-11.62s18.08,3.3,44.55-27.27c.09-.11.19-.21.29-.31l31.89-29.75a3.78,3.78,0,0,1,4.64-.46l4.41,2.78a4.46,4.46,0,0,1,1.89,4.68Z"/><path class="ag" d="M850.35,440.22l1.64-7.87a5.36,5.36,0,0,1,2.91-3.8l29.93-14,5.33-2.49a4.91,4.91,0,0,1,6.65,2.88L904.25,434a40.1,40.1,0,0,1,1.88,6.2Z"/><path class="e" d="M938.08,394.84,917,440.22H906.7c-1.53-8-4.76-18.12-11-30.33l-.18-.4-16.36-41.91a4.56,4.56,0,0,1,1-4.91L884,359a3.77,3.77,0,0,1,4.72-.49l47.85,30.66A4.52,4.52,0,0,1,938.08,394.84Z"/><path class="ag" d="M996,373.53l3.93,46.85c.37,4.42-4,7.43-7.58,5.17l-52.11-33.34a5.51,5.51,0,0,1-2.45-4.16l-3.62-41.27a5.34,5.34,0,0,1,4.59-5.93l19.11-1.75C977.17,337.29,994.22,352.68,996,373.53Z"/><path class="e" d="M886.48,331.74l41.82-39.63a3.8,3.8,0,0,1,5.46.17l51.07,54.34s-12.84-14.13-50.9-6.19l-.41.07-42,3.84a4,4,0,0,1-4-2.57l-2-5a4.57,4.57,0,0,1,.96-5.03Z"/><path class="ag" d="M932.87,226.28l42.51,10.44c4,1,5.3,6.45,2.21,9.38l-45.48,43.17a4.77,4.77,0,0,1-4.43,1.22l-37.5-9a5.46,5.46,0,0,1-3.8-6.54l4.36-20.15C895.12,234.38,914,221.64,932.87,226.28Z"/><path class="e" d="M862.2,325.73l-22-55.16A4.48,4.48,0,0,1,842,265l63.68-35.61s-16.42,8.8-21.19,50.32a3.35,3.35,0,0,1-.07.44l-9.59,44.28a4.12,4.12,0,0,1-3.5,3.32l-5.08.55A4,4,0,0,1,862.2,325.73Z"/><path class="ag" d="M783.57,245.54l22.35-40.4a4.88,4.88,0,0,1,9,.63l24,60a5.79,5.79,0,0,1-.29,4.91L819,306.39a4.84,4.84,0,0,1-6.94,1.89l-16.41-10.71C779.05,286.78,773.64,263.52,783.57,245.54Z"/><path class="e" d="M850,350.2l-55.42,5.54a4.07,4.07,0,0,1-4.32-3.6l-11.71-76.35s2.68,19.57,37.8,37.29a2.713,2.713,0,0,1,.37.21l36.07,23.52a4.46,4.46,0,0,1,1.84,4.62l-1.08,5.39A4.12,4.12,0,0,1,850,350.2Z"/><path class="ag" d="M754.42,404.69l-28.71-35.41c-2.7-3.34-.77-8.58,3.32-9l60.32-6.08a4.88,4.88,0,0,1,4.25,1.8L819,387.12a5.75,5.75,0,0,1-.48,7.71L804,408.36C789.37,422.08,767.2,420.44,754.42,404.69Z"/><path class="e" d="M865.77,369.05l-12.25,58.59A4,4,0,0,1,849,431l-70.9-11.62s18.08,3.3,44.55-27.27c.09-.11.19-.21.29-.31l31.89-29.75a3.78,3.78,0,0,1,4.64-.46l4.41,2.78a4.46,4.46,0,0,1,1.89,4.68Z"/><path class="ag" d="M850.35,440.22l1.64-7.87a5.36,5.36,0,0,1,2.91-3.8l29.93-14,5.33-2.49a4.91,4.91,0,0,1,6.65,2.88L904.25,434a40.1,40.1,0,0,1,1.88,6.2Z"/><path class="e" d="M938.08,394.84,917,440.22H906.7c-1.53-8-4.76-18.12-11-30.33l-.18-.4-16.36-41.91a4.56,4.56,0,0,1,1-4.91L884,359a3.77,3.77,0,0,1,4.72-.49l47.85,30.66A4.52,4.52,0,0,1,938.08,394.84Z"/><path class="ag" d="M996,373.53l3.93,46.85c.37,4.42-4,7.43-7.58,5.17l-52.11-33.34a5.51,5.51,0,0,1-2.45-4.16l-3.62-41.27a5.34,5.34,0,0,1,4.59-5.93l19.11-1.75C977.17,337.29,994.22,352.68,996,373.53Z"/><path class="e" d="M886.48,331.74l41.82-39.63a3.8,3.8,0,0,1,5.46.17l51.07,54.34s-12.84-14.13-50.9-6.19l-.41.07-42,3.84a4,4,0,0,1-4-2.57l-2-5a4.57,4.57,0,0,1,.96-5.03Z"/></g><g class="af"><path class="ag" d="M51.5,296.93,82.73,285.3c2.94-1.1,6.09,1.79,5.4,5L78,336.9a3.62,3.62,0,0,1-2.26,2.66L48.27,349.93a4.15,4.15,0,0,1-5.2-2.49L37.19,332.9C31.22,318.19,37.61,302.11,51.5,296.93Z"/><path class="e" d="M49.61,389.77,12.14,364.48a3.42,3.42,0,0,1-1.22-4.27l24.83-49.68S29.19,323.1,44,351.27c.06.1.1.2.15.3l12.92,32a3.11,3.11,0,0,1-.78,3.58l-3,2.52a3,3,0,0,1-3.68.1Z"/><path class="ag" d="M.1,355.87,9.26,362a4.44,4.44,0,0,1,1.93,3.22l3,30.83a3.67,3.67,0,0,1-3.56,4.15l-10.5.2Z"/><path class="e" d="M52.39,410.41l-16,13.42-16.47,13.8a3.141,3.141,0,0,1-.85.49,3,3,0,0,1-1.77.07,3.34,3.34,0,0,1-1.64-1L6.17,427.05.1,420.53V402.21a87.81,87.81,0,0,0,15.22-.75,1.73,1.73,0,0,1,.32,0l32.77-.64a3.4,3.4,0,0,1,3.14,2.12l1.62,3.85a3.14,3.14,0,0,1-.78,3.62Z"/><path class="ag" d="M26.2,440.22l-6.78-2a2.622,2.622,0,0,0-.38-.09,3.77,3.77,0,0,0-1.77.07,3.71,3.71,0,0,0-1.3.69l-1.6,1.34Z"/><path class="e" d="M80.61,440.22H55L58.9,423l1.63-7.19a2.88,2.88,0,0,1,2.72-2.28l4-.14a3.42,3.42,0,0,1,3.2,2.14l.18.44,3,7.19Z"/><path class="ag" d="M99.38,440.22l2.51-4.23,2.29-3.85a3.74,3.74,0,0,1,5.42-1l12.84,8.81c.15.1.3.2.44.31Z"/><path class="e" d="M123.93,440.22a92.318,92.318,0,0,0-17.21-11.82l-.29-.18-4.53-3.11L78.19,408.85a3.45,3.45,0,0,1-1.46-3.52l.83-3.94a2.89,2.89,0,0,1,2.76-2.33l43.24-1.19a3.42,3.42,0,0,1,3.39,2.9l4.76,28.94,1.42,8.64-2.75,1.87Z"/><path class="ag" d="M154.26,362.57l22.54,27.8c2.12,2.62.63,6.41-2.56,6.5l-47.07,1.33a4.18,4.18,0,0,1-3.32-1.57L103.9,372.21a4.07,4.07,0,0,1,.35-5.7l11.28-9.28C126.91,347.82,144.23,350.21,154.26,362.57Z"/><path class="e" d="M67.47,383.16l9.34-42.85a2.9,2.9,0,0,1,3.51-2.23l55.4,12.33S121.6,347,101,368.31a2.388,2.388,0,0,1-.23.22L76,388.93a3,3,0,0,1-3.62.1L69,386.74A3.47,3.47,0,0,1,67.47,383.16Z"/><path class="ag" d="M51.5,296.93,82.73,285.3c2.94-1.1,6.09,1.79,5.4,5L78,336.9a3.62,3.62,0,0,1-2.26,2.66L48.27,349.93a4.15,4.15,0,0,1-5.2-2.49L37.19,332.9C31.22,318.19,37.61,302.11,51.5,296.93Z"/><path class="e" d="M49.61,389.77,12.14,364.48a3.42,3.42,0,0,1-1.22-4.27l24.83-49.68S29.19,323.1,44,351.27c.06.1.1.2.15.3l12.92,32a3.11,3.11,0,0,1-.78,3.58l-3,2.52a3,3,0,0,1-3.68.1Z"/><path class="ag" d="M.1,355.87,9.26,362a4.44,4.44,0,0,1,1.93,3.22l3,30.83a3.67,3.67,0,0,1-3.56,4.15l-10.5.2Z"/><path class="e" d="M52.39,410.41l-16,13.42-16.47,13.8a3.141,3.141,0,0,1-.85.49,3,3,0,0,1-1.77.07,3.34,3.34,0,0,1-1.64-1L6.17,427.05.1,420.53V402.21a87.81,87.81,0,0,0,15.22-.75,1.73,1.73,0,0,1,.32,0l32.77-.64a3.4,3.4,0,0,1,3.14,2.12l1.62,3.85a3.14,3.14,0,0,1-.78,3.62Z"/><path class="ag" d="M26.2,440.22l-6.78-2a2.622,2.622,0,0,0-.38-.09,3.77,3.77,0,0,0-1.77.07,3.71,3.71,0,0,0-1.3.69l-1.6,1.34Z"/><path class="e" d="M80.61,440.22H55L58.9,423l1.63-7.19a2.88,2.88,0,0,1,2.72-2.28l4-.14a3.42,3.42,0,0,1,3.2,2.14l.18.44,3,7.19Z"/><path class="ag" d="M99.38,440.22l2.51-4.23,2.29-3.85a3.74,3.74,0,0,1,5.42-1l12.84,8.81c.15.1.3.2.44.31Z"/><path class="e" d="M123.93,440.22a92.318,92.318,0,0,0-17.21-11.82l-.29-.18-4.53-3.11L78.19,408.85a3.45,3.45,0,0,1-1.46-3.52l.83-3.94a2.89,2.89,0,0,1,2.76-2.33l43.24-1.19a3.42,3.42,0,0,1,3.39,2.9l4.76,28.94,1.42,8.64-2.75,1.87Z"/><path class="ag" d="M154.26,362.57l22.54,27.8c2.12,2.62.63,6.41-2.56,6.5l-47.07,1.33a4.18,4.18,0,0,1-3.32-1.57L103.9,372.21a4.07,4.07,0,0,1,.35-5.7l11.28-9.28C126.91,347.82,144.23,350.21,154.26,362.57Z"/><path class="e" d="M67.47,383.16l9.34-42.85a2.9,2.9,0,0,1,3.51-2.23l55.4,12.33S121.6,347,101,368.31a2.388,2.388,0,0,1-.23.22L76,388.93a3,3,0,0,1-3.62.1L69,386.74A3.47,3.47,0,0,1,67.47,383.16Z"/></g><g class="af"><path class="e" d="M763.17.22l-1.84,8.49a2.28,2.28,0,0,1-2,1.85l-2.84.31a2.22,2.22,0,0,1-2.28-1.45L750.58.22Z"/><path class="e" d="M750,18.21l-.6,3a2.31,2.31,0,0,1-2,1.89l-31,3.1a1.74,1.74,0,0,1-.72-.06h0a2,2,0,0,1-1.08-.66h0a2.43,2.43,0,0,1-.6-1.27l-3.68-24h14.35c1.22.72,2.52,1.43,3.92,2.13l.21.11L749,15.62a2.5,2.5,0,0,1,1,2.59Z"/><path class="ag" d="M694,53.59,677.91,33.78a3.09,3.09,0,0,1,1.85-5l33.74-3.39a2.69,2.69,0,0,1,2.38,1l14.21,17.39a3.2,3.2,0,0,1-.27,4.31l-8.11,7.57A18.72,18.72,0,0,1,694,53.59Z"/><path class="e" d="M756.24,33.66,749.4,66.43a2.26,2.26,0,0,1-2.52,1.85l-39.67-6.47s10.11,1.84,24.92-15.26a1.292,1.292,0,0,1,.16-.17l17.84-16.64a2.1,2.1,0,0,1,2.59-.26L755.19,31a2.49,2.49,0,0,1,1.05,2.66Z"/><path class="ag" d="M767.39,97.84,745,108.19a2.89,2.89,0,0,1-3.86-3.46l7.43-35.67a3,3,0,0,1,1.63-2.12l19.72-9.22a2.75,2.75,0,0,1,3.72,1.61L777.77,70C782,80.78,777.36,93.22,767.39,97.84Z"/><path class="e" d="M769.07,27.76l26.76,17.16a2.51,2.51,0,0,1,.86,3.16l-18,38.7S783.47,77,773,56.5a1.6,1.6,0,0,1-.1-.23l-9.16-23.44a2.54,2.54,0,0,1,.58-2.74L766.43,28a2.12,2.12,0,0,1,2.64-.24Z"/><path class="ag" d="M829.08,36.16l2.2,26.21A2.84,2.84,0,0,1,827,65.26L797.89,46.61a3.11,3.11,0,0,1-1.37-2.33l-2-23.08a3,3,0,0,1,2.56-3.32l10.69-1C818.56,15.89,828.09,24.5,829.08,36.16Z"/><line class="ah" x2="0.12" y2="0.12" transform="translate(822.72 20.99)"/><path class="e" d="M822.64,20.91c-1.3-1.19-9-7.28-28.27-3.26h-.23L770.65,19.8a2.22,2.22,0,0,1-2.24-1.43l-1.15-2.82a2.56,2.56,0,0,1,.57-2.79L781.09.22h22.12Z"/><path class="e" d="M763.17.22l-1.84,8.49a2.28,2.28,0,0,1-2,1.85l-2.84.31a2.22,2.22,0,0,1-2.28-1.45L750.58.22Z"/><path class="e" d="M750,18.21l-.6,3a2.31,2.31,0,0,1-2,1.89l-31,3.1a1.74,1.74,0,0,1-.72-.06h0a2,2,0,0,1-1.08-.66h0a2.43,2.43,0,0,1-.6-1.27l-3.68-24h14.35c1.22.72,2.52,1.43,3.92,2.13l.21.11L749,15.62a2.5,2.5,0,0,1,1,2.59Z"/><path class="ag" d="M694,53.59,677.91,33.78a3.09,3.09,0,0,1,1.85-5l33.74-3.39a2.69,2.69,0,0,1,2.38,1l14.21,17.39a3.2,3.2,0,0,1-.27,4.31l-8.11,7.57A18.72,18.72,0,0,1,694,53.59Z"/><path class="e" d="M756.24,33.66,749.4,66.43a2.26,2.26,0,0,1-2.52,1.85l-39.67-6.47s10.11,1.84,24.92-15.26a1.292,1.292,0,0,1,.16-.17l17.84-16.64a2.1,2.1,0,0,1,2.59-.26L755.19,31a2.49,2.49,0,0,1,1.05,2.66Z"/><path class="ag" d="M767.39,97.84,745,108.19a2.89,2.89,0,0,1-3.86-3.46l7.43-35.67a3,3,0,0,1,1.63-2.12l19.72-9.22a2.75,2.75,0,0,1,3.72,1.61L777.77,70C782,80.78,777.36,93.22,767.39,97.84Z"/><path class="e" d="M769.07,27.76l26.76,17.16a2.51,2.51,0,0,1,.86,3.16l-18,38.7S783.47,77,773,56.5a1.6,1.6,0,0,1-.1-.23l-9.16-23.44a2.54,2.54,0,0,1,.58-2.74L766.43,28a2.12,2.12,0,0,1,2.64-.24Z"/><path class="ag" d="M829.08,36.16l2.2,26.21A2.84,2.84,0,0,1,827,65.26L797.89,46.61a3.11,3.11,0,0,1-1.37-2.33l-2-23.08a3,3,0,0,1,2.56-3.32l10.69-1C818.56,15.89,828.09,24.5,829.08,36.16Z"/><line class="ah" x2="0.12" y2="0.12" transform="translate(822.72 20.99)"/><path class="e" d="M822.64,20.91c-1.3-1.19-9-7.28-28.27-3.26h-.23L770.65,19.8a2.22,2.22,0,0,1-2.24-1.43l-1.15-2.82a2.56,2.56,0,0,1,.57-2.79L781.09.22h22.12Z"/></g><g class="af"><path class="e" d="M108.15.22l-9,18.44a3,3,0,0,1-3.87,1.59L70.59,9.54,49.07.22Z"/><path class="ag" d="M112.23,65.23,79.81,71.32c-3.06.57-5.31-2.77-3.87-5.74L97.21,21.8a4,4,0,0,1,2.8-2.22l28.56-5.49a3.66,3.66,0,0,1,4.29,3.29l1.91,15.18C136.73,47.9,126.66,62.51,112.23,65.23Z"/><path class="e" d="M166.44,10.34,130.67,54.43c1.12-1.52,8.71-13.13,2.3-40.93l-.06-.32-1.64-13H161L166.35,6a3.38,3.38,0,0,1,.09,4.34Z"/><path class="ag" d="M212.68.22a30.509,30.509,0,0,1-.4,5.26l-5.71,34.66c-.54,3.27-4.29,4.64-6.44,2.36L168.47,8.83a4.09,4.09,0,0,1-1-3.46L168.3.22Z"/><path class="e" d="M108.15.22l-9,18.44a3,3,0,0,1-3.87,1.59L70.59,9.54,49.07.22Z"/><path class="ag" d="M112.23,65.23,79.81,71.32c-3.06.57-5.31-2.77-3.87-5.74L97.21,21.8a4,4,0,0,1,2.8-2.22l28.56-5.49a3.66,3.66,0,0,1,4.29,3.29l1.91,15.18C136.73,47.9,126.66,62.51,112.23,65.23Z"/><path class="e" d="M166.44,10.34,130.67,54.43c1.12-1.52,8.71-13.13,2.3-40.93l-.06-.32-1.64-13H161L166.35,6a3.38,3.38,0,0,1,.09,4.34Z"/><path class="ag" d="M212.68.22a30.509,30.509,0,0,1-.4,5.26l-5.71,34.66c-.54,3.27-4.29,4.64-6.44,2.36L168.47,8.83a4.09,4.09,0,0,1-1-3.46L168.3.22Z"/></g><line class="ah" transform="translate(977.97 383.74)"/><line class="ah" transform="translate(1614.42 383.74)"/><rect class="ai" width="10" height="4.12" transform="matrix(-0.814, -0.581, 0.581, -0.814, 1452.205, 144.765)"/><rect class="aj" width="11.02" height="5.03" transform="matrix(-0.524, 0.852, -0.852, -0.524, 1491.008, 136.951)"/><rect class="u" width="12.67" height="5.22" transform="translate(1504.11 106.819) rotate(-41.61)"/><rect class="u" width="12.67" height="5.22" transform="matrix(-0.359, -0.933, 0.933, -0.359, 1494.425, 125.841)"/><path class="ai" d="M1443.23,123.14h-.07c-.31-2.89-2.21-4.34-5.2-4.81-3.11,0-4.74-1.79-5.2-4.91l2.6-2.75c.46,3.12,2.09,4.88,5.2,4.91,3,.47,4.94,2,5.21,4.91Z"/><path class="ak" d="M1513.7,146.24v-.08c2.89-.3,4.34-2.2,4.81-5.19,0-3.12,1.79-4.74,4.91-5.21l2.75,2.6c-3.12.47-4.88,2.09-4.91,5.21-.47,3-2,4.93-4.91,5.2Z"/><path class="ai" d="M1470.46,93.58V93.5c2.06-2,2-4.44.5-7.06-1.93-2.44-1.57-4.82.57-7.13l3.78.3c-2.15,2.32-2.51,4.69-.58,7.13,1.53,2.66,1.57,5.07-.57,7.13Z"/><path class="al" d="M1466.9,113.6h0c2.89-1.59,3.52-4.53,3.85-7.87a10.349,10.349,0,0,1,3.86-7.87l4.16,2h0a11.3,11.3,0,0,0-3.85,7.87c-.32,3.15-1.3,6.08-3.85,7.87Z"/><rect class="am" width="10" height="4.12" transform="matrix(-0.193, 0.981, -0.981, -0.193, 1460.013, 120.285)"/><rect class="u" width="12.67" height="5.22" transform="matrix(0.849, -0.529, 0.529, 0.849, 1478.732, 158.081)"/><rect class="ak" width="11.35" height="4.67" transform="matrix(-0.938, -0.348, 0.348, -0.938, 1458.221, 161.009)"/><rect class="an" width="11.38" height="4.69" transform="translate(1477.382 127.237) rotate(-75.81)"/><path class="ai" d="M1519.33,126.59a.05.05,0,0,1-.09,0c-1.18-2.65-3.44-3.44-6.43-3-3,.95-5.06-.23-6.47-3.05l1.62-3.43c1.41,2.83,3.5,4,6.47,3.06,3-.5,5.3.32,6.47,3Z"/><path class="al" d="M1494.73,159.94c3.27-.48,4.89-3,6.36-6a10.33,10.33,0,0,1,6.37-6l3.19,3.37a11.24,11.24,0,0,0-6.36,6c-1.41,2.84-3.35,5.24-6.37,6Z"/><path class="ao" d="M1511.1,93.91l.76-6.23-4.1-4.74-.76,6.23,4.1,4.74Z"/><path class="ap" d="M1511.1,93.91l.76-6.23-4.1-4.74,3.34,10.97Z"/><path class="ao" d="M1509.88,89.91l3.81-2.78-4.71-.19-3.81,2.78Z"/><path class="ap" d="M1509.88,89.91l3.81-2.78-8.31,2.53Z"/><path class="ao" d="M1496.29,139.8l4.94-3.86.45-6.25-4.94,3.86-.45,6.25Z"/><path class="ap" d="M1496.29,139.8l4.94-3.86.45-6.25-5.39,10.11Z"/><path class="ao" d="M1498.26,136.11l4.65.72-3.2-3.45-4.65-.73Z"/><path class="ap" d="M1498.26,136.11l4.65.72-7.66-4.08Z"/><path class="ao" d="M1463.23,101.47l1.04-6.18-3.89-4.92-1.04,6.18,3.89,4.92Z"/><path class="ap" d="M1463.23,101.47l1.04-6.18-3.89-4.92,2.85,11.1Z"/><path class="ao" d="M1462.19,97.42l3.93-2.6-4.7-.4-3.92,2.61Z"/><path class="ap" d="M1462.19,97.42l3.93-2.6-8.41,2.15Z"/><path class="ao" d="M1430.56,140.84l3.5,5.2,6.21.89-3.5-5.2-6.21-.89Z"/><path class="ap" d="M1430.56,140.84l3.5,5.2,6.21.89-9.71-6.09Z"/><path class="ao" d="M1434.1,143.06l-1.05,4.6,3.68-2.95,1.05-4.59Z"/><path class="ap" d="M1434.1,143.06l-1.05,4.6,4.61-7.36Z"/><path class="aq" d="M1439.68,87.52c-.08,3.3,2.15,5.33,4.86,7.3a10.3,10.3,0,0,1,4.85,7.3l-3.86,2.57a11.26,11.26,0,0,0-4.86-7.3c-2.56-1.87-4.59-4.19-4.85-7.3Z"/><path class="ak" d="M1487,87.19c-.27,3.29,1.84,5.44,4.44,7.56a10.31,10.31,0,0,1,4.44,7.55l-4,2.36a11.241,11.241,0,0,0-4.43-7.56c-2.46-2-4.36-4.44-4.44-7.56Z"/><path class="aq" d="M1468.26,154.12c1.06-3.13-.47-5.73-2.48-8.41a10.31,10.31,0,0,1-2.48-8.41l4.45-1.31a11.281,11.281,0,0,0,2.48,8.41c1.89,2.54,3.15,5.36,2.48,8.4Z"/><rect class="ak" width="11.84" height="4.88" transform="translate(1459.427 107.056) rotate(143.1)"/><path class="ae" d="M1200.19,32.9c-.44,8.59,95.71,27.32,186.8,30.45,97.4,3.35,145.17-12.65,174.38,15.22,35.75,34.12,3.15,95.24,21.1,101.13,21,6.9,98.45-66.19,80.06-112C1625.17-25.32,1201.12,15,1200.19,32.9Z"/><path class="ae" d="M1124.79,21.68c-25.26-2.09-108.53-9-146.43,29.41-61.44,62.23,50.47,188.67,67,184.28,12.58-3.33-35.86-80.62,10.93-135.66,38.5-45.28,119.6-49.79,116.56-64.83C1171,25.49,1138.41,22.8,1124.79,21.68Z"/><path class="ah" d="M614.37,440.22a1079.427,1079.427,0,0,0-74.22-111c-14.57-19.11-27.54-36.12-39.42-51.3h0c-42-53.69-70.49-84.61-108.58-105.35a196.081,196.081,0,0,0-47.76-18.2c-31.67-7.73-68.41-9.52-112.45-6.57-45.27,3-98.26,11.08-161.35,22.83q-26.91,5-56.36,10.89-7,1.4-14.13,2.84"/><path class="ar" d="M.1,179.11q7.23,1,14.13,2.37,5.4,1.05,10.6,2.32a196.74,196.74,0,0,1,45.76,17.13l2,1.07a216.171,216.171,0,0,1,41.56,29.67c20.8,18.65,41.4,42.93,67,75.68h0c11.88,15.18,24.85,32.19,39.42,51.3,21.55,28.27,40.25,55.72,56.42,81.56"/><path class="as" d="M188.74,446.34h-.05"/><path class="as" d="M.1,428a389.552,389.552,0,0,1,64.77-5c1.91,0,3.81,0,5.72.09a357.12,357.12,0,0,1,50.84,4.77l1.34.23q8.72,1.5,17.33,3.44,11,2.47,21.85,5.69l.56.16q4.59,1.37,9.14,2.88"/><path class="ar" d="M.1,271.84q3.42-.78,6.82-1.62,11.71-2.87,23.32-6.24,19.42-5.64,38.35-12.7l2-.76c14.89-5.63,29.45-11.91,43.56-18.85q14.19-6.94,27.7-14.78,6.61-3.81,13-7.85a458.288,458.288,0,0,0,77.06-61.28c36.7-36,66.45-75.93,90.7-114.21,6.08-9.6,11.82-19.09,17.23-28.38,1-1.65,1.92-3.3,2.87-4.95"/><path class="ar" d="M405.91.22c-13.5,43.59-41.15,94.92-61.52,154.11-27.77,80.66-42,175.88,11.35,285.89"/><path class="ar" d="M1784.46,440.22c50.18-37.71,94.77-71.48,135.64-100"/><g class="af"><path class="ag" d="M1920.1,33.08v65.3l-8.56,10.09a5.92,5.92,0,0,1-5.28,2.1l-47.3-6.11a6.76,6.76,0,0,1-5.55-7.54l2.68-25.34c2.67-25.65,24.12-43.82,48-40.64Z"/><path class="e" d="M1830.46,162.61l-34.4-64.87a5.54,5.54,0,0,1,1.52-7.07l73.53-52.26s-19,13-19.33,64.68v.55l-5.89,55.71a5.1,5.1,0,0,1-3.87,4.55l-6.16,1.35a4.93,4.93,0,0,1-5.4-2.64Z"/><path class="ag" d="M1723.13,74.51l22.08-52.64a6,6,0,0,1,11.09-.41L1793.79,92a7.18,7.18,0,0,1,.3,6.09l-19.28,46.47a6,6,0,0,1-8.28,3.24l-21.6-11C1723.06,125.81,1713.32,97.93,1723.13,74.51Z"/><path class="e" d="M1818.68,194.32l-67.39,14.2a5,5,0,0,1-5.79-3.85l-24.57-92.29s5.91,23.69,51.44,40.79a4.992,4.992,0,0,1,.48.21l47.47,24.11a5.53,5.53,0,0,1,2.88,5.44l-.61,6.76A5.1,5.1,0,0,1,1818.68,194.32Z"/><path class="ag" d="M1708.49,274l-40-39.71c-3.77-3.74-2.09-10.44,2.89-11.49l73.33-15.5a6,6,0,0,1,5.46,1.66l35.38,34.84a7.09,7.09,0,0,1,.43,9.53l-16,18.57C1753.77,290.75,1726.3,291.69,1708.49,274Z"/><path class="e" d="M1840.62,215.39,1833.38,289a5,5,0,0,1-5.1,4.69l-88.72-4.78s22.66,1.63,51.13-39.47c.1-.14.21-.28.32-.41l35.23-40.82a4.68,4.68,0,0,1,5.64-1.19l5.79,2.83a5.53,5.53,0,0,1,2.95,5.54Z"/><path class="ag" d="M1880.4,353.78l-46.81,28.09c-4.41,2.65-9.83-1.25-9.3-6.68l7.83-80.16a6.65,6.65,0,0,1,3.07-5.06L1876.34,265a6.07,6.07,0,0,1,8.55,2.65l11.69,22.45C1908.45,312.81,1901.21,341.26,1880.4,353.78Z"/><path class="e" d="M1920.1,225.62v49.73l-17.31,51.09c.85-3,6-25.35-20-64.85a4.339,4.339,0,0,1-.28-.46l-25.7-49.34a5.63,5.63,0,0,1,.61-6.17l4.19-5a4.69,4.69,0,0,1,5.73-1.23Z"/><path class="e" d="M1920.1,117.2v54.05L1869,181.58a4.92,4.92,0,0,1-5.26-2.63l-3.2-5.92a5.64,5.64,0,0,1,.59-6.27l46.13-54.29A4.69,4.69,0,0,1,1914,112Z"/><path class="ag" d="M1920.1,33.08v65.3l-8.56,10.09a5.92,5.92,0,0,1-5.28,2.1l-47.3-6.11a6.76,6.76,0,0,1-5.55-7.54l2.68-25.34c2.67-25.65,24.12-43.82,48-40.64Z"/><path class="e" d="M1830.46,162.61l-34.4-64.87a5.54,5.54,0,0,1,1.52-7.07l73.53-52.26s-19,13-19.33,64.68v.55l-5.89,55.71a5.1,5.1,0,0,1-3.87,4.55l-6.16,1.35a4.93,4.93,0,0,1-5.4-2.64Z"/><path class="ag" d="M1723.13,74.51l22.08-52.64a6,6,0,0,1,11.09-.41L1793.79,92a7.18,7.18,0,0,1,.3,6.09l-19.28,46.47a6,6,0,0,1-8.28,3.24l-21.6-11C1723.06,125.81,1713.32,97.93,1723.13,74.51Z"/><path class="e" d="M1818.68,194.32l-67.39,14.2a5,5,0,0,1-5.79-3.85l-24.57-92.29s5.91,23.69,51.44,40.79a4.992,4.992,0,0,1,.48.21l47.47,24.11a5.53,5.53,0,0,1,2.88,5.44l-.61,6.76A5.1,5.1,0,0,1,1818.68,194.32Z"/><path class="ag" d="M1708.49,274l-40-39.71c-3.77-3.74-2.09-10.44,2.89-11.49l73.33-15.5a6,6,0,0,1,5.46,1.66l35.38,34.84a7.09,7.09,0,0,1,.43,9.53l-16,18.57C1753.77,290.75,1726.3,291.69,1708.49,274Z"/><path class="e" d="M1840.62,215.39,1833.38,289a5,5,0,0,1-5.1,4.69l-88.72-4.78s22.66,1.63,51.13-39.47c.1-.14.21-.28.32-.41l35.23-40.82a4.68,4.68,0,0,1,5.64-1.19l5.79,2.83a5.53,5.53,0,0,1,2.95,5.54Z"/><path class="ag" d="M1880.4,353.78l-46.81,28.09c-4.41,2.65-9.83-1.25-9.3-6.68l7.83-80.16a6.65,6.65,0,0,1,3.07-5.06L1876.34,265a6.07,6.07,0,0,1,8.55,2.65l11.69,22.45C1908.45,312.81,1901.21,341.26,1880.4,353.78Z"/><path class="e" d="M1920.1,225.62v49.73l-17.31,51.09c.85-3,6-25.35-20-64.85a4.339,4.339,0,0,1-.28-.46l-25.7-49.34a5.63,5.63,0,0,1,.61-6.17l4.19-5a4.69,4.69,0,0,1,5.73-1.23Z"/><path class="e" d="M1920.1,117.2v54.05L1869,181.58a4.92,4.92,0,0,1-5.26-2.63l-3.2-5.92a5.64,5.64,0,0,1,.59-6.27l46.13-54.29A4.69,4.69,0,0,1,1914,112Z"/></g><path class="ar" d="M878.48.22c10.44,33.2,11.51,63.1-2.42,85.88-53.76,87.91-280.14-13-352,87.33-18.34,25.61-26.19,63.74-23.33,104.45h0c4.11,58.67,30.46,122.7,79.63,162.33"/><path class="ar" d="M734.94,440.22c12.47-7.84,24.78-16.2,36.85-23.85h0c16.68-10.59,32.89-19.85,48.37-24.56,1.32-.41,2.64-.78,4-1.11,12.79-3.27,25.06-3.19,36.69,2.08a42.6,42.6,0,0,1,3.92,2c8.87,5,14.76,11.54,20.1,19.81,4.64,7.21,8.87,15.72,14.28,25.65"/><rect class="ah" width="1920" height="440" transform="translate(0.1 0.22)"/></g></svg>