<svg xmlns="http://www.w3.org/2000/svg" width="32" height="32" viewBox="0 0 32 32"><defs><style>.a{fill:#999;}</style></defs><path class="a" d="M1466.6,86.04a16,16,0,1,0,16,16A16,16,0,0,0,1466.6,86.04Zm7.936,13.384c.008.168.008.336.008.512a11.216,11.216,0,0,1-17.248,9.448,7.348,7.348,0,0,0,.936.056,7.88,7.88,0,0,0,4.9-1.7,3.936,3.936,0,0,1-3.68-2.736,3.762,3.762,0,0,0,.736.072,3.983,3.983,0,0,0,1.04-.136,3.947,3.947,0,0,1-3.16-3.864v-.056a3.96,3.96,0,0,0,1.784.488,3.961,3.961,0,0,1-1.224-5.264,11.194,11.194,0,0,0,8.128,4.12,4.152,4.152,0,0,1-.1-.9,3.939,3.939,0,0,1,6.816-2.7,7.888,7.888,0,0,0,2.5-.952A3.922,3.922,0,0,1,1474.232,98a8.02,8.02,0,0,0,2.272-.616A8.089,8.089,0,0,1,1474.536,99.424Z" transform="translate(-1450.6 -86.04)"/></svg>